<?xml version="1.0" encoding="UTF-8" standalone="no"?>
<svg
        xmlns:dc="http://purl.org/dc/elements/1.1/"
        xmlns:cc="http://creativecommons.org/ns#"
        xmlns:rdf="http://www.w3.org/1999/02/22-rdf-syntax-ns#"
        xmlns="http://www.w3.org/2000/svg"
        xmlns:sodipodi="http://sodipodi.sourceforge.net/DTD/sodipodi-0.dtd"
        xmlns:inkscape="http://www.inkscape.org/namespaces/inkscape"
        width="100%"
        height="100%"
        viewBox="0 0 647 171"
        version="1.1"
        xml:space="preserve"
        style="fill-rule:evenodd;clip-rule:evenodd;stroke-linejoin:round;stroke-miterlimit:2;"
        id="svg30"
        sodipodi:docname="banner-green.svg"
        inkscape:version="1.0.1 (3bc2e813f5, 2020-09-07, custom)"><metadata
   id="metadata36"><rdf:RDF><cc:Work
       rdf:about=""><dc:format>image/svg+xml</dc:format><dc:type
        rdf:resource="http://purl.org/dc/dcmitype/StillImage"/><dc:title></dc:title></cc:Work></rdf:RDF></metadata>
    <defs
            id="defs34"/>
    <sodipodi:namedview
            pagecolor="#ffffff"
            bordercolor="#666666"
            borderopacity="1"
            objecttolerance="10"
            gridtolerance="10"
            guidetolerance="10"
            inkscape:pageopacity="0"
            inkscape:pageshadow="2"
            inkscape:window-width="1920"
            inkscape:window-height="1005"
            id="namedview32"
            showgrid="false"
            inkscape:zoom="1.7882535"
            inkscape:cx="216.55761"
            inkscape:cy="85.5"
            inkscape:window-x="0"
            inkscape:window-y="0"
            inkscape:window-maximized="1"
            inkscape:current-layer="g26"/>
    <g
            transform="matrix(1,0,0,1,-448.537,-130.55)"
            id="g28">
        <g
                transform="matrix(0.486264,0,0,0.486264,299.562,-703.903)"
                id="g26">
            <g
                    id="g24"
                    style="fill:#2ec4b6;fill-opacity:1">
                <g
                        transform="matrix(0.320372,0,0,0.307749,923.419,1526.64)"
                        id="g4"
                        style="fill:#2ec4b6;fill-opacity:1">
                    <path
                            d="M1224.56,1078.21C1324.49,909.284 1524.37,909.284 1624.3,993.749C1724.25,1078.21 1724.25,1247.14 1624.3,1416.08C1554.35,1542.77 1374.46,1669.47 1224.56,1753.94C1074.65,1669.47 894.766,1542.77 824.81,1416.08C724.873,1247.14 724.873,1078.21 824.81,993.749C924.747,909.284 1124.62,909.284 1224.56,1078.21Z"
                            style="fill:#2ec4b6;fill-opacity:1"
                            id="path2"/>
                </g>
                <g
                        transform="matrix(0.738672,0,0,0.469982,170.502,834.124)"
                        id="g18"
                        style="fill:#2ec4b6;fill-opacity:1">
                    <g
                            transform="matrix(564.075,0,0,886.559,174.869,2612.3)"
                            id="g8"
                            style="fill:#2ec4b6;fill-opacity:1">
                        <path
                                d="M0.358,-0L0.669,-0L0.669,-0.04C0.621,-0.04 0.597,-0.053 0.566,-0.096L0.393,-0.341L0.49,-0.432C0.536,-0.475 0.569,-0.49 0.62,-0.49L0.62,-0.53L0.347,-0.53L0.347,-0.49C0.413,-0.49 0.434,-0.486 0.434,-0.474C0.434,-0.46 0.407,-0.43 0.338,-0.365L0.242,-0.274L0.242,-0.83L0.019,-0.792L0.019,-0.755C0.1,-0.755 0.105,-0.745 0.105,-0.581L0.105,-0.157C0.105,-0.062 0.09,-0.042 0.016,-0.04L0.016,-0L0.311,-0L0.311,-0.04C0.254,-0.04 0.242,-0.061 0.242,-0.164L0.242,-0.203L0.292,-0.251L0.368,-0.137C0.396,-0.096 0.416,-0.061 0.416,-0.053C0.416,-0.043 0.401,-0.04 0.358,-0.04L0.358,-0Z"
                                style="fill:#2ec4b6;fill-rule:nonzero;fill-opacity:1"
                                id="path6"/>
                    </g>
                    <g
                            transform="matrix(564.075,0,0,886.559,549.415,2612.3)"
                            id="g12"
                            style="fill:#2ec4b6;fill-opacity:1">
                        <path
                                d="M0.465,-0.262C0.465,-0.193 0.455,-0.145 0.433,-0.109C0.412,-0.073 0.382,-0.055 0.342,-0.055C0.269,-0.055 0.237,-0.113 0.237,-0.247L0.237,-0.53L0.013,-0.53L0.013,-0.49C0.093,-0.481 0.098,-0.476 0.098,-0.366L0.098,-0.231C0.098,-0.158 0.112,-0.105 0.141,-0.066C0.178,-0.016 0.234,0.01 0.304,0.01C0.381,0.01 0.448,-0.023 0.482,-0.078L0.486,-0.078L0.497,0.011L0.696,-0.001L0.696,-0.04C0.63,-0.04 0.618,-0.046 0.611,-0.08C0.606,-0.102 0.604,-0.146 0.604,-0.227L0.604,-0.53L0.378,-0.53L0.378,-0.49C0.459,-0.482 0.465,-0.474 0.465,-0.366L0.465,-0.262Z"
                                style="fill:#2ec4b6;fill-rule:nonzero;fill-opacity:1"
                                id="path10"/>
                    </g>
                    <g
                            transform="matrix(564.075,0,0,886.559,949.344,2612.3)"
                            id="g16"
                            style="fill:#2ec4b6;fill-opacity:1">
                        <path
                                d="M0.481,0.01L0.671,-0.001L0.671,-0.04C0.614,-0.04 0.603,-0.046 0.597,-0.081C0.592,-0.109 0.59,-0.159 0.59,-0.258L0.59,-0.83L0.337,-0.79L0.337,-0.756C0.407,-0.756 0.44,-0.744 0.446,-0.716C0.45,-0.699 0.452,-0.637 0.452,-0.559L0.452,-0.474L0.448,-0.474C0.41,-0.522 0.358,-0.54 0.292,-0.54C0.148,-0.54 0.039,-0.42 0.039,-0.261C0.039,-0.102 0.146,0.01 0.298,0.01C0.37,0.01 0.431,-0.015 0.477,-0.064L0.481,-0.064L0.481,0.01ZM0.45,-0.248C0.45,-0.18 0.442,-0.139 0.423,-0.11C0.398,-0.071 0.355,-0.047 0.311,-0.047C0.234,-0.047 0.191,-0.125 0.191,-0.263C0.191,-0.399 0.234,-0.474 0.312,-0.474C0.355,-0.474 0.394,-0.453 0.418,-0.415C0.439,-0.382 0.45,-0.337 0.45,-0.287L0.45,-0.248Z"
                                style="fill:#2ec4b6;fill-rule:nonzero;fill-opacity:1"
                                id="path14"/>
                    </g>
                </g>
                <g
                        transform="matrix(416.667,0,0,416.667,1457.63,2062.27)"
                        id="g22"
                        style="fill:#2ec4b6;fill-opacity:1">
                    <path
                            d="M0.107,-0.035C0.139,-0.006 0.191,0.01 0.248,0.01C0.358,0.01 0.43,-0.051 0.43,-0.143C0.43,-0.215 0.387,-0.266 0.279,-0.324C0.204,-0.364 0.173,-0.395 0.173,-0.432C0.173,-0.465 0.197,-0.487 0.234,-0.487C0.28,-0.487 0.31,-0.456 0.341,-0.38L0.38,-0.38L0.38,-0.531L0.354,-0.531L0.336,-0.507C0.306,-0.528 0.262,-0.541 0.221,-0.541C0.128,-0.541 0.058,-0.475 0.058,-0.386C0.058,-0.318 0.099,-0.268 0.2,-0.213C0.274,-0.173 0.306,-0.139 0.306,-0.102C0.306,-0.066 0.277,-0.044 0.228,-0.044C0.16,-0.044 0.119,-0.087 0.096,-0.182L0.054,-0.182L0.054,-0L0.085,-0L0.107,-0.035Z"
                            style="fill:#2ec4b6;fill-rule:nonzero;fill-opacity:1"
                            id="path20"/>
                </g>
            </g>
        </g>
    </g>
</svg>
