<?xml version="1.0" encoding="UTF-8" standalone="no"?>
<!DOCTYPE svg PUBLIC "-//W3C//DTD SVG 1.1//EN" "http://www.w3.org/Graphics/SVG/1.1/DTD/svg11.dtd">
<svg width="100%" height="100%" viewBox="0 0 555 449" version="1.1" xmlns="http://www.w3.org/2000/svg"
     xml:space="preserve"
     style="fill-rule:evenodd;clip-rule:evenodd;stroke-linejoin:round;stroke-miterlimit:2;">
    <path d="M0,65.107C0,47.839 6.86,31.278 19.07,19.067C31.281,6.857 47.842,-0.003 65.11,-0.003L65.112,-0.003C101.202,-0.003 130.458,29.253 130.458,65.343L130.458,383.056C130.458,400.374 123.579,416.982 111.333,429.227C99.088,441.473 82.48,448.352 65.162,448.352L65.161,448.352C29.174,448.352 0.001,419.179 0.001,383.192C0.001,298.138 0,150.136 0,65.107Z"
          style="fill:rgb(46,196,182);"/>
    <path d="M489.887,224.178C568.294,271.373 568.294,365.768 529.088,412.962C489.888,460.156 411.476,460.156 333.069,412.962C274.26,379.922 215.457,294.97 176.251,224.178C215.457,153.385 274.261,68.434 333.069,35.397C411.476,-11.799 489.887,-11.799 529.089,35.397C568.294,82.592 568.294,176.984 489.887,224.178Z"
          style="fill:rgb(255,159,28);"/>
</svg>
