<svg width="56" height="42" viewBox="0 0 56 42" fill="none" xmlns="http://www.w3.org/2000/svg">
<g clip-path="url(#clip0_4013_114)">
<rect width="56" height="42" fill="#FA5022" style="fill:#FA5022;fill:color(display-p3 0.9804 0.3137 0.1333);fill-opacity:1;"/>
<g clip-path="url(#clip1_4013_114)">
<path d="M46.7295 17.6408V18.938C46.0284 17.9947 45.0105 17.4053 43.802 17.4053C41.47 17.4053 39.6631 19.5935 39.6631 22.2941C39.6631 24.9947 41.47 27.1829 43.802 27.1829C45.0956 27.1829 46.1707 26.5089 46.8732 25.4471V26.949H49.104V17.6408H46.7295ZM44.3813 24.8516C43.0848 24.8516 42.0347 23.7067 42.0347 22.2941C42.0347 20.8815 43.0848 19.7366 44.3813 19.7366C45.6779 19.7366 46.728 20.8815 46.728 22.2941C46.728 23.7067 45.6779 24.8516 44.3813 24.8516ZM19.3835 15.0571H21.7565V26.9474H19.3835V15.0571ZM24.486 21.6724C24.486 19.1134 25.9835 17.4069 28.0573 17.4069C29.3451 17.4069 30.3629 18.007 30.976 19.0303C31.5905 18.007 32.6069 17.4069 33.8947 17.4069C35.9685 17.4069 37.466 19.1134 37.466 21.6724V26.949H35.0929V21.4031C35.0929 20.4045 34.4623 19.7536 33.6277 19.7536C32.7932 19.7536 32.1625 20.406 32.1625 21.4031V26.949H29.7895V21.4031C29.7895 20.4045 29.1588 19.7536 28.3243 19.7536C27.4897 19.7536 26.8591 20.406 26.8591 21.4031V26.949H24.486V21.6724ZM15.0861 17.7377C14.5244 15.5296 13.3364 14.8232 12.2056 14.8232C11.0748 14.8232 9.88679 15.5296 9.32505 17.7377L6.88599 26.9505H9.28985C9.68145 25.4117 10.8885 24.5546 12.2056 24.5546C13.5227 24.5546 14.7297 25.4133 15.1213 26.9505H17.5267L15.0861 17.7377ZM12.2056 22.408C11.44 22.408 10.7463 22.7127 10.2344 23.2066L11.6131 17.8454C11.7451 17.333 11.9401 17.1699 12.2071 17.1699C12.474 17.1699 12.6691 17.333 12.8011 17.8454L14.1783 23.2066C13.6664 22.7127 12.9712 22.408 12.2056 22.408Z" fill="white" style="fill:white;fill-opacity:1;"/>
</g>
</g>
<defs>
<clipPath id="clip0_4013_114">
<rect width="56" height="42" rx="7" fill="white" style="fill:white;fill-opacity:1;"/>
</clipPath>
<clipPath id="clip1_4013_114">
<rect width="44" height="14" fill="white" style="fill:white;fill-opacity:1;" transform="translate(6 14)"/>
</clipPath>
</defs>
</svg>
