<svg width="56" height="42" viewBox="0 0 56 42" fill="none" xmlns="http://www.w3.org/2000/svg">
<rect x="0.875" y="0.875" width="54.25" height="40.25" rx="6.125" fill="white" style="fill:white;fill-opacity:1;"/>
<rect x="0.875" y="0.875" width="54.25" height="40.25" rx="6.125" stroke="black" style="stroke:black;stroke-opacity:1;" stroke-width="1.75"/>
<path d="M14.6819 14.5066C15.1604 13.8992 15.4851 13.0835 15.3995 12.25C14.699 12.2854 13.8442 12.719 13.3493 13.327C12.9049 13.8476 12.5116 14.6974 12.6141 15.4959C13.4004 15.5652 14.1861 15.097 14.6819 14.5066ZM15.3906 15.6519C14.2486 15.5828 13.2776 16.3096 12.7323 16.3096C12.1866 16.3096 11.3515 15.6867 10.4483 15.7034C9.27263 15.721 8.18179 16.3956 7.58518 17.4685C6.35812 19.615 7.26136 22.7989 8.45462 24.5471C9.03411 25.4119 9.73245 26.3642 10.6527 26.33C11.5221 26.2954 11.8629 25.7587 12.9197 25.7587C13.9758 25.7587 14.2827 26.33 15.2031 26.3127C16.1575 26.2954 16.7542 25.4474 17.3337 24.5817C17.9985 23.5958 18.2706 22.6438 18.2877 22.5916C18.2706 22.5742 16.4473 21.8644 16.4304 19.7357C16.4132 17.9534 17.8619 17.1057 17.93 17.0531C17.112 15.8251 15.8337 15.6867 15.3906 15.6519Z" fill="black" style="fill:black;fill-opacity:1;"/>
<path d="M26.7774 13.2406C29.2595 13.2406 30.988 14.977 30.988 17.5051C30.988 20.0423 29.2241 21.7878 26.7154 21.7878H23.9672V26.223H21.9815V13.2406H26.7774ZM23.9672 20.0962H26.2455C27.9742 20.0962 28.958 19.1517 28.958 17.5142C28.958 15.8768 27.9742 14.9411 26.2544 14.9411H23.9672V20.0962ZM31.4807 23.5332C31.4807 21.8686 32.7306 20.915 35.0353 20.7711L37.5085 20.618V19.8984C37.5085 18.8457 36.8259 18.2699 35.6116 18.2699C34.6097 18.2699 33.8829 18.7917 33.7322 19.5924H31.9415C31.9948 17.91 33.5549 16.6866 35.6647 16.6866C37.9341 16.6866 39.4145 17.8921 39.4145 19.7634V26.223H37.5795V24.6667H37.5352C37.0122 25.6833 35.8597 26.322 34.6097 26.322C32.766 26.322 31.4807 25.2064 31.4807 23.5332ZM37.5085 22.6964V21.9676L35.3012 22.1116C34.0602 22.1925 33.4132 22.6603 33.4132 23.4791C33.4132 24.2707 34.0869 24.7837 35.1417 24.7837C36.4891 24.7837 37.5085 23.9108 37.5085 22.6964ZM41.1015 29.6959V28.1396C41.2256 28.1573 41.5269 28.1753 41.6865 28.1753C42.5641 28.1753 43.0605 27.7977 43.362 26.8259L43.5393 26.2501L40.1795 16.8035H42.2538L44.5941 24.4686H44.6384L46.9787 16.8035H49L45.5161 26.727C44.7183 29.0031 43.8052 29.75 41.8727 29.75C41.722 29.75 41.2344 29.732 41.1015 29.6959Z" fill="black" style="fill:black;fill-opacity:1;"/>
</svg>
