<svg width="56" height="42" viewBox="0 0 56 42" fill="none" xmlns="http://www.w3.org/2000/svg">
<rect x="0.875" y="0.875" width="54.25" height="40.25" rx="6.125" fill="white" style="fill:white;fill-opacity:1;"/>
<rect x="0.875" y="0.875" width="54.25" height="40.25" rx="6.125" stroke="#ECECF0" style="stroke:#ECECF0;stroke:color(display-p3 0.9255 0.9255 0.9412);stroke-opacity:1;" stroke-width="1.75"/>
<g clip-path="url(#clip0_2740_2117)">
<path d="M36.8743 24.926L36.7565 25.5869C36.4493 25.4845 33.5151 24.8033 33.4738 26.9751C33.4407 28.7143 36.1097 28.4984 36.7214 28.3361L36.79 29.0568C34.7837 29.6161 32.1177 29.0101 32.0621 26.9586C31.9986 24.5935 35.524 24.2981 36.8743 24.926Z" fill="#231F20" style="fill:#231F20;fill:color(display-p3 0.1373 0.1216 0.1255);fill-opacity:1;"/>
<path d="M36.8743 24.926L36.7565 25.5869C36.4493 25.4845 33.5151 24.8033 33.4738 26.9751C33.4407 28.7143 36.1097 28.4984 36.7214 28.336L36.79 29.0568C34.7837 29.616 32.1177 29.0101 32.0621 26.9586C31.9986 24.5934 35.524 24.2981 36.8743 24.926Z" stroke="#231F20" style="stroke:#231F20;stroke:color(display-p3 0.1373 0.1216 0.1255);stroke-opacity:1;" stroke-width="0.140529"/>
<path d="M38.9495 29.1749L38.9491 25.4504L37.1462 25.4508V24.7395L41.9924 24.7385L41.9928 25.4496L40.2243 25.45L40.2247 29.1745L38.9495 29.1749Z" fill="#231F20" style="fill:#231F20;fill:color(display-p3 0.1373 0.1216 0.1255);fill-opacity:1;"/>
<path d="M38.9495 29.1749L38.9491 25.4504L37.1462 25.4508V24.7395L41.9924 24.7385L41.9928 25.4496L40.2243 25.45L40.2247 29.1745L38.9495 29.1749Z" stroke="#231F20" style="stroke:#231F20;stroke:color(display-p3 0.1373 0.1216 0.1255);stroke-opacity:1;" stroke-width="0.140529"/>
<path d="M28.1382 24.7089L31.7122 24.7078L31.7125 25.4519L29.3312 25.4523L29.332 29.1431H28.1389L28.1382 24.7089Z" fill="#231F20" style="fill:#231F20;fill:color(display-p3 0.1373 0.1216 0.1255);fill-opacity:1;"/>
<path d="M28.1382 24.7089L31.7122 24.7077L31.7125 25.4519L29.3312 25.4523L29.332 29.1431H28.1389L28.1382 24.7089Z" stroke="#231F20" style="stroke:#231F20;stroke:color(display-p3 0.1373 0.1216 0.1255);stroke-opacity:1;" stroke-width="0.140529"/>
<path d="M29.2195 26.5769L31.5726 26.5765V27.3204L29.2195 27.3208V26.5769Z" fill="#231F20" style="fill:#231F20;fill:color(display-p3 0.1373 0.1216 0.1255);fill-opacity:1;"/>
<path d="M29.2195 26.577L31.5726 26.5766V27.3204L29.2195 27.3208V26.577Z" stroke="#231F20" style="stroke:#231F20;stroke:color(display-p3 0.1373 0.1216 0.1255);stroke-opacity:1;" stroke-width="0.140529"/>
<path d="M29.22 28.3994L31.6945 28.399V29.1423L29.22 29.1431V28.3994Z" fill="#231F20" style="fill:#231F20;fill:color(display-p3 0.1373 0.1216 0.1255);fill-opacity:1;"/>
<path d="M29.22 28.3994L31.6945 28.399V29.1423L29.22 29.1431V28.3994Z" stroke="#231F20" style="stroke:#231F20;stroke:color(display-p3 0.1373 0.1216 0.1255);stroke-opacity:1;" stroke-width="0.140529"/>
<path d="M20.1434 29.1359L20.1426 24.7196L21.4779 24.7192L21.4787 29.1355L20.1434 29.1359Z" fill="#231F20" style="fill:#231F20;fill:color(display-p3 0.1373 0.1216 0.1255);fill-opacity:1;"/>
<path d="M20.1434 29.1359L20.1426 24.7196L21.4779 24.7192L21.4787 29.1355L20.1434 29.1359Z" stroke="#231F20" style="stroke:#231F20;stroke:color(display-p3 0.1373 0.1216 0.1255);stroke-opacity:1;" stroke-width="0.140529"/>
<path d="M14.0081 29.1741L14.0073 24.7584L15.3427 24.758L15.3434 29.1738L14.0081 29.1741Z" fill="#231F20" style="fill:#231F20;fill:color(display-p3 0.1373 0.1216 0.1255);fill-opacity:1;"/>
<path d="M14.0081 29.1741L14.0073 24.7584L15.3427 24.758L15.3434 29.1738L14.0081 29.1741Z" stroke="#231F20" style="stroke:#231F20;stroke:color(display-p3 0.1373 0.1216 0.1255);stroke-opacity:1;" stroke-width="0.140529"/>
<path d="M14.8953 29.1739L15.1662 28.4581L16.1651 28.43C17.3232 28.4296 18.0234 27.7879 18.023 26.9421C18.023 25.9195 17.0892 25.4362 16.3701 25.4366L15.1562 25.3718L14.9882 24.758L16.3979 24.7576C18.0199 24.7572 19.4235 25.6219 19.4239 26.9836C19.4242 28.3549 18.0207 29.1735 16.3986 29.1739H14.8953Z" fill="#231F20" style="fill:#231F20;fill:color(display-p3 0.1373 0.1216 0.1255);fill-opacity:1;"/>
<path d="M14.8953 29.1738L15.1662 28.4581L16.1651 28.43C17.3232 28.4296 18.0234 27.7879 18.023 26.9421C18.023 25.9195 17.0892 25.4361 16.3701 25.4365L15.1562 25.3717L14.9882 24.758L16.3979 24.7576C18.0199 24.7572 19.4235 25.6218 19.4239 26.9835C19.4242 28.3549 18.0207 29.1734 16.3986 29.1738H14.8953Z" stroke="#231F20" style="stroke:#231F20;stroke:color(display-p3 0.1373 0.1216 0.1255);stroke-opacity:1;" stroke-width="0.140529"/>
<path d="M14.0093 34.7227L14.0085 30.3065L15.3439 30.3062L15.3447 34.7223L14.0093 34.7227Z" fill="#231F20" style="fill:#231F20;fill:color(display-p3 0.1373 0.1216 0.1255);fill-opacity:1;"/>
<path d="M14.0093 34.7227L14.0085 30.3066L15.3439 30.3062L15.3447 34.7223L14.0093 34.7227Z" stroke="#231F20" style="stroke:#231F20;stroke:color(display-p3 0.1373 0.1216 0.1255);stroke-opacity:1;" stroke-width="0.140529"/>
<path d="M14.8965 34.7223L15.167 34.0065L16.1663 33.9781C17.3243 33.9781 18.0242 33.3364 18.0242 32.4907C18.0238 31.468 17.09 30.9847 16.3709 30.9847L15.157 30.9199L14.9889 30.3065L16.399 30.3062C18.0212 30.3058 19.4247 31.17 19.4251 32.5321C19.4251 33.9034 18.022 34.7216 16.3998 34.722L14.8965 34.7223Z" fill="#231F20" style="fill:#231F20;fill:color(display-p3 0.1373 0.1216 0.1255);fill-opacity:1;"/>
<path d="M14.8965 34.7223L15.167 34.0065L16.1663 33.9782C17.3243 33.9782 18.0242 33.3364 18.0242 32.4907C18.0238 31.468 17.09 30.9847 16.3709 30.9847L15.157 30.9199L14.9889 30.3065L16.399 30.3062C18.0212 30.3058 19.4247 31.17 19.4251 32.5321C19.4251 33.9034 18.022 34.7216 16.3998 34.722L14.8965 34.7223Z" stroke="#231F20" style="stroke:#231F20;stroke:color(display-p3 0.1373 0.1216 0.1255);stroke-opacity:1;" stroke-width="0.140529"/>
<path d="M27.5027 34.74L27.502 29.9521H28.7907L28.7915 34.7396L27.5027 34.74Z" fill="#231F20" style="fill:#231F20;fill:color(display-p3 0.1373 0.1216 0.1255);fill-opacity:1;"/>
<path d="M27.5027 34.74L27.502 29.9521H28.7907L28.7915 34.7396L27.5027 34.74Z" stroke="#231F20" style="stroke:#231F20;stroke:color(display-p3 0.1373 0.1216 0.1255);stroke-opacity:1;" stroke-width="0.140529"/>
<path d="M34.6275 34.7756L34.6267 31.4942L35.9155 31.4938L35.9163 34.7753L34.6275 34.7756Z" fill="#231F20" style="fill:#231F20;fill:color(display-p3 0.1373 0.1216 0.1255);fill-opacity:1;"/>
<path d="M34.6275 34.7756L34.6267 31.4942L35.9155 31.4938L35.9163 34.7753L34.6275 34.7756Z" stroke="#231F20" style="stroke:#231F20;stroke:color(display-p3 0.1373 0.1216 0.1255);stroke-opacity:1;" stroke-width="0.140529"/>
<path d="M34.6267 29.9601L35.9155 29.9597V30.8056L34.6267 30.806V29.9601Z" fill="#231F20" style="fill:#231F20;fill:color(display-p3 0.1373 0.1216 0.1255);fill-opacity:1;"/>
<path d="M34.6267 29.9601L35.9155 29.9597V30.8056L34.6267 30.806V29.9601Z" stroke="#231F20" style="stroke:#231F20;stroke:color(display-p3 0.1373 0.1216 0.1255);stroke-opacity:1;" stroke-width="0.140529"/>
<path d="M38.9789 33.9103L38.9785 30.6471L40.2949 30.6468L40.2957 33.761C40.2957 34.1795 41.0148 34.3096 41.4256 34.17V34.8949C40.5385 35.0997 38.9792 35.0722 38.9789 33.9103Z" fill="#231F20" style="fill:#231F20;fill:color(display-p3 0.1373 0.1216 0.1255);fill-opacity:1;"/>
<path d="M38.9789 33.9103L38.9785 30.6471L40.2949 30.6468L40.2957 33.761C40.2957 34.1796 41.0148 34.3096 41.4256 34.17V34.8949C40.5385 35.0998 38.9792 35.0722 38.9789 33.9103Z" stroke="#231F20" style="stroke:#231F20;stroke:color(display-p3 0.1373 0.1216 0.1255);stroke-opacity:1;" stroke-width="0.140529"/>
<path d="M37.9514 32.1902V31.4933L41.3876 31.4926L41.3879 32.1899L37.9514 32.1902Z" fill="#231F20" style="fill:#231F20;fill:color(display-p3 0.1373 0.1216 0.1255);fill-opacity:1;"/>
<path d="M37.9514 32.1903V31.4934L41.3876 31.4926L41.3879 32.1899L37.9514 32.1903Z" stroke="#231F20" style="stroke:#231F20;stroke:color(display-p3 0.1373 0.1216 0.1255);stroke-opacity:1;" stroke-width="0.140529"/>
<path d="M34.9994 15.0768C34.9982 10.1623 32.0312 8.03493 28.6586 7.28657V7.03224C34.7932 7.34637 39.2882 11.0561 39.289 15.305C39.2902 20.1565 34.0043 23.6211 27.4828 23.6226C20.9618 23.6238 15.7033 19.9023 15.7021 15.3104C15.7014 10.4925 20.2928 7.00965 28.1211 7.00769L28.1222 12.9927L26.2716 12.9567C22.306 13.0971 17.7146 14.8186 17.715 17.1305C17.7154 19.6733 22.0755 22.7289 27.3098 22.7277C31.5436 22.7269 35.0001 19.6695 34.9994 15.0768Z" fill="#231F20" style="fill:#231F20;fill:color(display-p3 0.1373 0.1216 0.1255);fill-opacity:1;"/>
<path d="M34.9994 15.0767C34.9982 10.1623 32.0312 8.0349 28.6586 7.28654V7.03221C34.7932 7.34634 39.2882 11.056 39.289 15.3049C39.2902 20.1565 34.0043 23.6211 27.4828 23.6226C20.9618 23.6237 15.7033 19.9023 15.7021 15.3103C15.7014 10.4925 20.2928 7.00963 28.1211 7.00766L28.1222 12.9927L26.2716 12.9567C22.306 13.0971 17.7146 14.8186 17.715 17.1304C17.7154 19.6733 22.0755 22.7289 27.3098 22.7277C31.5436 22.7269 35.0001 19.6694 34.9994 15.0767Z" stroke="#231F20" style="stroke:#231F20;stroke:color(display-p3 0.1373 0.1216 0.1255);stroke-opacity:1;" stroke-width="0.140529"/>
<path d="M28.0896 22.0395C25.8425 21.8803 22.9525 20.3913 22.9521 17.8228C22.9518 15.28 25.4125 13.4358 28.0882 13.3337L28.0896 22.0395Z" fill="#231F20" style="fill:#231F20;fill:color(display-p3 0.1373 0.1216 0.1255);fill-opacity:1;"/>
<path d="M28.0896 22.0395C25.8425 21.8803 22.9525 20.3912 22.9521 17.8228C22.9518 15.28 25.4125 13.4357 28.0882 13.3337L28.0896 22.0395Z" stroke="#231F20" style="stroke:#231F20;stroke:color(display-p3 0.1373 0.1216 0.1255);stroke-opacity:1;" stroke-width="0.140529"/>
<path d="M22.2171 32.6878L24.2901 32.682C24.2337 32.1842 23.8603 31.9053 23.3 31.9053C22.693 31.9057 22.2356 32.1381 22.2171 32.6878ZM22.2078 33.3C22.2733 34.5739 24.8503 34.1178 25.196 33.7549V34.5267C24.6823 34.7683 24.021 34.7963 23.2865 34.7967C21.948 34.7971 20.8632 34.1186 20.8628 33.0123C20.8628 32.0265 21.8618 31.2455 23.2857 31.2451C24.3829 31.2451 25.5973 31.756 25.5132 33.2992L22.2078 33.3Z" fill="#231F20" style="fill:#231F20;fill:color(display-p3 0.1373 0.1216 0.1255);fill-opacity:1;"/>
<path d="M22.2171 32.6879L24.2901 32.6821C24.2337 32.1842 23.8603 31.9053 23.3 31.9053C22.693 31.9057 22.2356 32.1382 22.2171 32.6879ZM22.2078 33.3C22.2733 34.5739 24.8503 34.1178 25.196 33.755V34.5267C24.6823 34.7684 24.021 34.7964 23.2865 34.7968C21.948 34.7971 20.8632 34.1186 20.8628 33.0123C20.8628 32.0265 21.8618 31.2455 23.2857 31.2451C24.3829 31.2451 25.5973 31.7561 25.5132 33.2992L22.2078 33.3Z" stroke="#231F20" style="stroke:#231F20;stroke:color(display-p3 0.1373 0.1216 0.1255);stroke-opacity:1;" stroke-width="0.140529"/>
<path d="M23.9339 26.6249L24.8026 26.6245C25.1479 26.6245 25.6427 26.4012 25.6427 26.0342C25.6427 25.6295 25.2334 25.4346 24.8211 25.4346H23.9339V26.6249ZM26.9781 25.8804C26.9785 26.931 25.9849 27.0103 25.9325 27.0146C26.0913 27.117 26.2331 27.32 26.2404 27.3307L27.264 29.1431L25.8708 29.1435L25.1668 27.8236C25.1575 27.8009 24.9799 27.3683 24.4369 27.3775L23.9436 27.3779L23.944 29.1443H22.6202L22.6194 24.7101L25.0126 24.7093C25.6824 24.7093 26.9781 24.8765 26.9781 25.8804Z" fill="#231F20" style="fill:#231F20;fill:color(display-p3 0.1373 0.1216 0.1255);fill-opacity:1;"/>
<path d="M23.9339 26.6249L24.8026 26.6245C25.1479 26.6245 25.6427 26.4012 25.6427 26.0342C25.6427 25.6295 25.2334 25.4346 24.8211 25.4346H23.9339V26.6249ZM26.9781 25.8804C26.9785 26.931 25.9849 27.0104 25.9325 27.0146C26.0913 27.117 26.2331 27.32 26.2404 27.3307L27.264 29.1431L25.8708 29.1435L25.1668 27.8236C25.1575 27.8009 24.9799 27.3683 24.4369 27.3775L23.9436 27.3779L23.944 29.1443H22.6202L22.6194 24.7101L25.0126 24.7093C25.6824 24.7093 26.9781 24.8765 26.9781 25.8804Z" stroke="#231F20" style="stroke:#231F20;stroke:color(display-p3 0.1373 0.1216 0.1255);stroke-opacity:1;" stroke-width="0.140529"/>
<path d="M28.7818 33.1266C28.7818 33.684 29.2878 34.1355 29.9117 34.1351C30.5356 34.1351 31.0416 33.6832 31.0416 33.1263C31.0412 32.5693 30.5356 32.1178 29.9113 32.1178C29.2874 32.1182 28.7818 32.5697 28.7818 33.1266ZM28.3987 33.0899C28.3987 31.8669 29.2111 31.3745 30.3738 31.3741C31.4594 31.3737 32.33 31.9498 32.3304 33.0887C32.3304 34.1999 31.4506 34.8601 30.3649 34.8605C29.109 34.8605 28.3991 34.3307 28.3987 33.0899Z" fill="#231F20" style="fill:#231F20;fill:color(display-p3 0.1373 0.1216 0.1255);fill-opacity:1;"/>
<path d="M28.7818 33.1266C28.7818 33.684 29.2878 34.1355 29.9117 34.1351C30.5356 34.1351 31.0416 33.6832 31.0416 33.1263C31.0412 32.5693 30.5356 32.1178 29.9113 32.1178C29.2874 32.1182 28.7818 32.5697 28.7818 33.1266ZM28.3987 33.0899C28.3987 31.8669 29.2111 31.3745 30.3738 31.3741C31.4594 31.3737 32.33 31.9498 32.3304 33.0887C32.3304 34.1999 31.4506 34.8601 30.3649 34.8605C29.109 34.8605 28.3991 34.3307 28.3987 33.0899Z" stroke="#231F20" style="stroke:#231F20;stroke:color(display-p3 0.1373 0.1216 0.1255);stroke-opacity:1;" stroke-width="0.140529"/>
</g>
<defs>
<clipPath id="clip0_2740_2117">
<rect width="28" height="28" fill="white" style="fill:white;fill-opacity:1;" transform="translate(14 7)"/>
</clipPath>
</defs>
</svg>
