<svg width="56" height="42" viewBox="0 0 56 42" fill="none" xmlns="http://www.w3.org/2000/svg">
<g clip-path="url(#clip0_3503_127)">
<rect width="56" height="42" rx="7" fill="#002D73" style="fill:#002D73;fill:color(display-p3 0.0000 0.1765 0.4510);fill-opacity:1;"/>
<path d="M42.2854 19.5848L29.405 6.70871C29.0276 6.33476 28.518 6.125 27.9869 6.125C27.4559 6.125 26.9463 6.33476 26.5688 6.70871L13.7146 19.5848C13.5278 19.77 13.3795 19.9905 13.2783 20.2334C13.1771 20.4763 13.125 20.7368 13.125 21C13.125 21.2632 13.1771 21.5237 13.2783 21.7666C13.3795 22.0095 13.5278 22.23 13.7146 22.4151L26.5776 35.2913C26.955 35.6652 27.4646 35.875 27.9956 35.875C28.5267 35.875 29.0363 35.6652 29.4137 35.2913L42.2854 22.4151C42.4722 22.23 42.6205 22.0095 42.7217 21.7666C42.8229 21.5237 42.875 21.2632 42.875 21C42.875 20.7368 42.8229 20.4763 42.7217 20.2334C42.6205 19.9905 42.4722 19.77 42.2854 19.5848ZM33.5065 24.0836C33.1749 26.7829 31.2201 28.0845 28.0262 28.0845H21.5598L21.935 25.0795H28.3229C29.1432 25.0795 29.5882 24.5816 29.693 23.708C29.7014 23.6179 29.7014 23.5273 29.693 23.4372H33.5588C33.5588 23.6207 33.5065 23.8565 33.4803 24.0836H33.5065ZM36.1244 22.3365H22.2143L22.5459 19.6285H28.7854C29.6581 19.6285 29.9809 18.9908 30.0769 18.2308C30.1729 17.4709 30.0769 16.9904 29.0996 16.9904H22.8688L23.244 13.8718H29.6144C33.2447 13.8718 34.222 15.418 33.9777 17.5407C33.9131 18.2834 33.6706 18.9996 33.2709 19.6285H33.6461C33.9927 19.6265 34.3358 19.6991 34.6519 19.8415C34.968 19.9838 35.2499 20.1926 35.4783 20.4536C35.7068 20.7146 35.8765 21.0217 35.9759 21.3541C36.0753 21.6865 36.1022 22.0365 36.0546 22.3802L36.1244 22.3365Z" fill="white" style="fill:white;fill-opacity:1;"/>
</g>
<defs>
<clipPath id="clip0_3503_127">
<rect width="56" height="42" rx="7" fill="white" style="fill:white;fill-opacity:1;"/>
</clipPath>
</defs>
</svg>
