<svg width="56" height="42" viewBox="0 0 56 42" fill="none" xmlns="http://www.w3.org/2000/svg">
<rect width="56" height="42" rx="7" fill="#D50043" style="fill:#D50043;fill:color(display-p3 0.8353 0.0000 0.2627);fill-opacity:1;"/>
<path fill-rule="evenodd" clip-rule="evenodd" d="M19.25 15.2186C19.25 13.5791 20.5653 12.25 22.2186 12.25H33.7814C35.4209 12.25 36.75 13.5653 36.75 15.2186V29.75H22.2186C20.5791 29.75 19.25 28.4346 19.25 26.7814V15.2186ZM23 18.3538V18.6462C23 19.268 23.4962 19.75 24.1084 19.75H31.8916C32.5177 19.75 33 19.2558 33 18.6462V18.3538C33 17.732 32.5038 17.25 31.8916 17.25H24.1084C23.4823 17.25 23 17.7442 23 18.3538ZM23 23.3538V23.6462C23 24.268 23.4962 24.75 24.1084 24.75H31.8916C32.5177 24.75 33 24.2558 33 23.6462V23.3538C33 22.732 32.5038 22.25 31.8916 22.25H24.1084C23.4823 22.25 23 22.7442 23 23.3538Z" fill="white" style="fill:white;fill-opacity:1;"/>
</svg>
