<svg width="56" height="42" viewBox="0 0 56 42" fill="none" xmlns="http://www.w3.org/2000/svg">
<rect width="56" height="42" rx="7" fill="#1E1E1E" style="fill:#1E1E1E;fill:color(display-p3 0.1176 0.1176 0.1176);fill-opacity:1;"/>
<path d="M29.3715 33.2499H19.25V16.2866C19.25 14.2151 20.0989 12.211 21.578 10.7927C23.0797 9.35328 25.0418 8.63258 27.1038 8.76553C30.909 9.01027 34.005 12.3035 34.005 16.1074C34.005 17.3176 33.8389 18.5625 33.6145 19.5509C35.5105 20.9172 36.75 23.1699 36.75 25.7134C36.75 29.8701 33.439 33.2499 29.3715 33.2499ZM26.0512 30.1051H29.3715C31.7429 30.1051 33.6711 28.1338 33.6711 25.7134C33.6711 24.5071 33.1938 23.4146 32.4203 22.6187C30.9563 25.4629 28.8717 27.9181 26.0512 30.1051ZM22.327 21.3199V28.9278C25.7229 26.7175 28.0529 24.2818 29.6074 21.3278C29.5281 21.3238 29.4488 21.3219 29.3697 21.3219H22.329L22.327 21.3199ZM22.327 18.1751H29.3715C29.8337 18.1751 30.2846 18.2193 30.7223 18.3024C30.8355 17.6644 30.9262 16.8898 30.9262 16.1074C30.9262 13.9318 29.1244 12.0453 26.9096 11.9046C25.704 11.8256 24.5588 12.2457 23.6854 13.0859C22.81 13.926 22.327 15.0629 22.327 16.2885V18.1769V18.1751Z" fill="white" style="fill:white;fill-opacity:1;"/>
</svg>
