<svg width="56" height="42" viewBox="0 0 56 42" fill="none" xmlns="http://www.w3.org/2000/svg">
<g clip-path="url(#clip0_3558_66)">
<rect width="56" height="42" fill="url(#paint0_linear_3558_66)" style=""/>
<path fill-rule="evenodd" clip-rule="evenodd" d="M23.6 9.59998H20V25.2C20 25.2 20 25.2 20 25.2C20 29.5078 23.4922 33 27.8 33C32.1078 33 35.6 29.5078 35.6 25.2C35.6 20.8922 32.1078 17.4 27.8 17.4C26.2536 17.4 24.8124 17.85 23.6 18.6262V9.59998ZM31.4 25.2C31.4 27.1882 29.7882 28.8 27.8 28.8C25.8118 28.8 24.2 27.1882 24.2 25.2C24.2 23.2118 25.8118 21.6 27.8 21.6C29.7882 21.6 31.4 23.2118 31.4 25.2Z" fill="white" style="fill:white;fill-opacity:1;"/>
<rect x="27.8" y="16.2" width="7.2" height="7.2" rx="3.6" transform="rotate(-90 27.8 16.2)" fill="url(#paint1_linear_3558_66)" style=""/>
</g>
<defs>
<linearGradient id="paint0_linear_3558_66" x1="28" y1="41.706" x2="28" y2="0.168002" gradientUnits="userSpaceOnUse">
<stop stop-color="#5A5A5A" style="stop-color:#5A5A5A;stop-color:color(display-p3 0.3529 0.3529 0.3529);stop-opacity:1;"/>
<stop offset="0.146" stop-color="#484848" style="stop-color:#484848;stop-color:color(display-p3 0.2824 0.2824 0.2824);stop-opacity:1;"/>
<stop offset="0.52" stop-color="#212121" style="stop-color:#212121;stop-color:color(display-p3 0.1294 0.1294 0.1294);stop-opacity:1;"/>
<stop offset="0.817" stop-color="#080808" style="stop-color:#080808;stop-color:color(display-p3 0.0314 0.0314 0.0314);stop-opacity:1;"/>
<stop offset="1" style="stop-color:black;stop-opacity:1;"/>
</linearGradient>
<linearGradient id="paint1_linear_3558_66" x1="28.8584" y1="17.2512" x2="33.9488" y2="22.3488" gradientUnits="userSpaceOnUse">
<stop stop-color="#E52F08" style="stop-color:#E52F08;stop-color:color(display-p3 0.8980 0.1843 0.0314);stop-opacity:1;"/>
<stop offset="1" stop-color="#E94F96" style="stop-color:#E94F96;stop-color:color(display-p3 0.9137 0.3098 0.5882);stop-opacity:1;"/>
</linearGradient>
<clipPath id="clip0_3558_66">
<rect width="56" height="42" rx="7" fill="white" style="fill:white;fill-opacity:1;"/>
</clipPath>
</defs>
</svg>
