<svg width="56" height="42" viewBox="0 0 56 42" fill="none" xmlns="http://www.w3.org/2000/svg">
<rect x="0.875" y="0.875" width="54.25" height="40.25" rx="6.125" fill="white" style="fill:white;fill-opacity:1;"/>
<rect x="0.875" y="0.875" width="54.25" height="40.25" rx="6.125" stroke="#ECECF0" style="stroke:#ECECF0;stroke:color(display-p3 0.9255 0.9255 0.9412);stroke-opacity:1;" stroke-width="1.75"/>
<path fill-rule="evenodd" clip-rule="evenodd" d="M16.3418 18.8819H13.4647C13.4647 18.3845 13.4094 18.0509 13.299 17.881C13.1277 17.6294 12.6552 17.5036 11.8819 17.5036C11.1306 17.5036 10.6329 17.576 10.3899 17.7209C10.1471 17.8663 10.0254 18.1825 10.0254 18.6693C10.0254 19.1099 10.1331 19.4001 10.3489 19.5392C10.5034 19.6379 10.7077 19.6959 10.9623 19.7132L11.5424 19.7564C12.7859 19.8433 13.5624 19.9045 13.8722 19.9395C14.8556 20.0439 15.5684 20.3192 16.0108 20.7658C16.3588 21.114 16.5663 21.5692 16.6327 22.1313C16.6713 22.4676 16.6907 22.8482 16.6907 23.271C16.6907 24.2453 16.6023 24.959 16.4257 25.4113C16.1053 26.2412 15.3858 26.7654 14.266 26.9855C13.7969 27.0785 13.0794 27.125 12.1142 27.125C10.5029 27.125 9.38022 27.024 8.74624 26.8209C7.96812 26.5721 7.45513 26.0683 7.20687 25.3094C7.06858 24.8869 7 24.1834 7 23.1985H9.8769C9.8769 23.3083 9.87732 23.3922 9.87732 23.45C9.87732 23.9757 10.0206 24.3136 10.3069 24.4643C10.5053 24.5681 10.7448 24.6226 11.0262 24.6291H12.084C12.6236 24.6291 12.9682 24.5998 13.1166 24.5414C13.3812 24.4318 13.5548 24.2556 13.6377 24.0116C13.6818 23.8612 13.7035 23.6668 13.7035 23.4289C13.7035 22.896 13.519 22.5717 13.1501 22.4554C13.0122 22.4095 12.3709 22.3454 11.2259 22.2642C10.3062 22.1951 9.66752 22.1285 9.30997 22.0641C8.36805 21.8786 7.74034 21.4968 7.42712 20.9173C7.15167 20.425 7.01408 19.68 7.01408 18.6835C7.01408 17.9246 7.08838 17.3161 7.23726 16.8583C7.38613 16.4006 7.62604 16.0529 7.95711 15.8153C8.44207 15.4502 9.06253 15.236 9.81793 15.1719C10.4466 15.1142 11.1439 15.0847 11.9109 15.0847C13.1183 15.0847 13.9788 15.158 14.4918 15.3028C15.7437 15.6573 16.3695 16.6498 16.3695 18.2807C16.3695 18.4145 16.3603 18.6146 16.3418 18.8819Z" fill="#0054A5" style="fill:#0054A5;fill:color(display-p3 0.0000 0.3294 0.6471);fill-opacity:1;"/>
<path fill-rule="evenodd" clip-rule="evenodd" d="M31.9783 21.1097H33.9062C34.5174 21.0865 34.8892 21.0369 35.023 20.9595C35.2058 20.8536 35.3285 20.6416 35.3895 20.3238C35.4285 20.1122 35.4481 19.7975 35.4481 19.3797C35.4481 18.8677 35.4093 18.4882 35.3314 18.2405C35.2201 17.8933 34.9538 17.6819 34.5318 17.6051C34.4484 17.5935 34.2487 17.5873 33.9322 17.5873H31.9783V21.1097ZM28.8859 27.0427V14.9385H33.3931H34.1005H34.6474C35.4376 14.9385 36.0406 15.0065 36.4549 15.1423C37.4026 15.4551 38.0384 16.0955 38.3641 17.0634C38.5321 17.5713 38.6162 18.3361 38.6162 19.3573C38.6162 20.5851 38.5229 21.4675 38.3385 22.0046C37.9689 23.0669 37.2084 23.6788 36.0596 23.8374C35.9247 23.8612 35.3499 23.8825 34.3354 23.8995L33.8221 23.9176H31.9783V27.0427H28.8859Z" fill="#0054A5" style="fill:#0054A5;fill:color(display-p3 0.0000 0.3294 0.6471);fill-opacity:1;"/>
<path fill-rule="evenodd" clip-rule="evenodd" d="M44.6638 22.5927L43.2147 17.3459L41.8088 22.5927H44.6638ZM45.2778 24.951H41.1433L40.5878 27.0428H37.3883L40.8405 14.9385H45.5055L49 27.0428H45.8679L45.2778 24.951Z" fill="#0054A5" style="fill:#0054A5;fill:color(display-p3 0.0000 0.3294 0.6471);fill-opacity:1;"/>
<path fill-rule="evenodd" clip-rule="evenodd" d="M24.7453 16.4702C26.0207 16.4702 27.159 17.0892 27.9074 18.0587L28.574 16.553C27.5313 15.515 26.1125 14.875 24.5475 14.875C22.1108 14.875 20.0263 16.4253 19.1709 18.6198H17.871L17.1035 20.3531H18.7757C18.7632 20.5139 18.755 20.6749 18.755 20.8391C18.755 21.0377 18.7649 21.2341 18.7834 21.4281H17.9431L17.1757 23.162H19.2108C20.0905 25.301 22.149 26.8027 24.5475 26.8027C25.7562 26.8027 26.8778 26.4212 27.8065 25.7695V23.6444C27.0586 24.5414 25.9648 25.1082 24.7453 25.1082C23.3197 25.1082 22.0658 24.3339 21.3358 23.162H25.5972L26.3647 21.4281H20.7088C20.6796 21.2194 20.664 21.0062 20.664 20.789C20.664 20.6421 20.6711 20.4968 20.6847 20.3531H26.8403L27.6077 18.6198H21.2169C21.9238 17.3348 23.2388 16.4702 24.7453 16.4702Z" fill="#FEC10E" style="fill:#FEC10E;fill:color(display-p3 0.9961 0.7569 0.0549);fill-opacity:1;"/>
</svg>
