<svg width="56" height="42" viewBox="0 0 56 42" fill="none" xmlns="http://www.w3.org/2000/svg">
<rect width="56" height="42" rx="7" fill="#DE378C" style="fill:#DE378C;fill:color(display-p3 0.8706 0.2157 0.5490);fill-opacity:1;"/>
<path fill-rule="evenodd" clip-rule="evenodd" d="M22.2223 26.7053C22.2223 26.7053 22.0382 25.8364 22.0382 25.2643C22.0382 24.6922 22.2125 23.8145 22.2125 23.8145C22.854 21.1932 25.2049 19.2412 28.0001 19.2412C31.2874 19.2412 33.985 21.9356 33.985 25.25V26.7076H25.251C25.7668 27.7239 26.8099 28.2955 28.0128 28.2955H35.8642L35.875 19.7003C35.875 18.4188 34.8351 17.3704 33.5641 17.3704H22.4359C21.1649 17.3704 20.125 18.3871 20.125 19.6685V30.8883C20.125 32.1698 21.1649 33.25 22.4359 33.25H33.5641C34.7048 33.25 35.6563 32.4243 35.84 31.3444H28.0128C25.2131 31.3444 22.8593 29.333 22.2223 26.7053Z" fill="white" style="fill:white;fill-opacity:1;"/>
<path fill-rule="evenodd" clip-rule="evenodd" d="M27.775 21.9074C26.602 21.9074 25.582 22.7006 25.075 23.7223H30.475C29.9681 22.7006 28.9481 21.9074 27.775 21.9074Z" fill="white" style="fill:white;fill-opacity:1;"/>
<path fill-rule="evenodd" clip-rule="evenodd" d="M32.7249 13.7854C32.7249 11.0044 30.5081 8.75 27.7737 8.75C25.0845 8.75 22.8973 10.9307 22.8255 13.6479C22.8243 13.6594 22.8252 13.6706 22.8252 13.6824V15.1956C22.8252 15.3766 22.9666 15.5555 23.1446 15.5555H24.9662C25.1441 15.5555 25.3002 15.3766 25.3002 15.1956V13.7854C25.3002 12.3967 26.4095 11.2668 27.7751 11.2668C29.1406 11.2668 30.25 12.3967 30.25 13.7854V15.1956C30.25 15.3766 30.3943 15.5555 30.5723 15.5555H32.3939C32.5719 15.5555 32.7249 15.3766 32.7249 15.1956V13.7854Z" fill="white" style="fill:white;fill-opacity:1;"/>
</svg>
