<svg width="56" height="42" viewBox="0 0 56 42" fill="none" xmlns="http://www.w3.org/2000/svg">
<rect width="56" height="42" rx="7" fill="#0F4CA1" style="fill:#0F4CA1;fill:color(display-p3 0.0588 0.2980 0.6314);fill-opacity:1;"/>
<path fill-rule="evenodd" clip-rule="evenodd" d="M29.4318 30.625H33.7273V23.2938C34.5598 24.9 36.3832 25.495 37.9249 25.495C41.7187 25.495 43.75 22.1788 43.75 18.1885C43.75 14.9248 41.8179 11.375 38.2928 11.375C36.2857 11.375 34.6081 12.23 33.7273 14.1214V11.375H29.4318V30.625ZM39.1982 18.2927C39.1982 20.4436 38.1945 21.9197 36.5311 21.9197C35.0619 21.9197 33.8369 20.4436 33.8369 18.4736C33.8369 16.4533 34.9148 14.9504 36.5311 14.9504C38.2436 14.9504 39.1982 16.5041 39.1982 18.2927Z" fill="#FFFFFE" style="fill:#FFFFFE;fill:color(display-p3 1.0000 1.0000 0.9961);fill-opacity:1;"/>
<path fill-rule="evenodd" clip-rule="evenodd" d="M26.5682 11.6808H22.5225V14.0768H22.4739C21.5306 12.4457 19.9916 11.375 18.0814 11.375C14.0618 11.375 12.25 14.3318 12.25 18.2841C12.25 22.2121 14.4585 24.9634 18.0074 24.9634C19.7939 24.9634 21.2826 24.2515 22.3488 22.6943H22.3991V23.4097C22.3991 26.0103 21.0101 27.2591 18.429 27.2591C16.5678 27.2591 15.4263 26.8516 14.0618 26.1631L13.838 29.7841C14.8805 30.165 16.6425 30.625 18.7763 30.625C23.9875 30.625 26.5682 28.8649 26.5682 23.4097V11.6808ZM16.8656 18.2072C16.8656 16.3976 17.7341 14.8934 19.3968 14.8934C21.4064 14.8934 22.2504 16.5492 22.2504 18.0287C22.2504 20.0694 20.9844 21.4459 19.3968 21.4459C18.0569 21.4459 16.8656 20.2718 16.8656 18.2072Z" fill="#FFFFFE" style="fill:#FFFFFE;fill:color(display-p3 1.0000 1.0000 0.9961);fill-opacity:1;"/>
</svg>
