<svg width="56" height="42" viewBox="0 0 56 42" fill="none" xmlns="http://www.w3.org/2000/svg">
<rect x="0.875" y="0.875" width="54.25" height="40.25" rx="6.125" fill="white" style="fill:white;fill-opacity:1;"/>
<rect x="0.875" y="0.875" width="54.25" height="40.25" rx="6.125" stroke="#ECECF0" style="stroke:#ECECF0;stroke:color(display-p3 0.9255 0.9255 0.9412);stroke-opacity:1;" stroke-width="1.75"/>
<path d="M26.5444 20.7612V25.9208H24.9382V13.1796H29.1961C30.2753 13.1796 31.1954 13.5463 31.9483 14.2797C32.7179 15.0131 33.1027 15.9086 33.1027 16.9661C33.1027 18.0492 32.7179 18.9447 31.9483 19.6696C31.2038 20.3945 30.2836 20.7527 29.1961 20.7527H26.5444V20.7612ZM26.5444 14.7488V19.192H29.2296C29.8654 19.192 30.4007 18.9703 30.819 18.5353C31.2456 18.1004 31.4631 17.5716 31.4631 16.9746C31.4631 16.3862 31.2456 15.866 30.819 15.431C30.4007 14.979 29.8737 14.7573 29.2296 14.7573H26.5444V14.7488Z" fill="#3C4043" style="fill:#3C4043;fill:color(display-p3 0.2353 0.2510 0.2627);fill-opacity:1;"/>
<path d="M37.3023 16.915C38.4902 16.915 39.4271 17.2391 40.113 17.8872C40.799 18.5353 41.142 19.4223 41.142 20.548V25.9208H39.6111V24.7098H39.5442C38.8833 25.7076 37.9966 26.2023 36.8924 26.2023C35.9471 26.2023 35.1608 25.9208 34.5251 25.3494C33.8893 24.778 33.5714 24.0702 33.5714 23.2174C33.5714 22.3134 33.906 21.597 34.5752 21.0682C35.2445 20.531 36.1395 20.2666 37.2521 20.2666C38.2058 20.2666 38.9921 20.4457 39.6028 20.8039V20.4286C39.6028 19.8572 39.3853 19.3796 38.9419 18.9788C38.4985 18.578 37.9799 18.3818 37.386 18.3818C36.4909 18.3818 35.7798 18.7656 35.2612 19.5417L33.8475 18.6377C34.6254 17.4864 35.7798 16.915 37.3023 16.915ZM35.2277 23.2429C35.2277 23.6694 35.4034 24.0275 35.7631 24.309C36.1144 24.5904 36.5327 24.7354 37.0095 24.7354C37.6871 24.7354 38.2894 24.4795 38.8164 23.9679C39.3434 23.4562 39.6111 22.8592 39.6111 22.1684C39.1092 21.7676 38.4149 21.5629 37.5198 21.5629C36.8673 21.5629 36.3236 21.7249 35.8886 22.0405C35.4452 22.3731 35.2277 22.7739 35.2277 23.2429Z" fill="#3C4043" style="fill:#3C4043;fill:color(display-p3 0.2353 0.2510 0.2627);fill-opacity:1;"/>
<path d="M49.8753 17.1964L44.5216 29.75H42.8653L44.8562 25.358L41.326 17.1964H43.0744L45.6174 23.4562H45.6509L48.127 17.1964H49.8753Z" fill="#3C4043" style="fill:#3C4043;fill:color(display-p3 0.2353 0.2510 0.2627);fill-opacity:1;"/>
<path d="M20.1557 19.7208C20.1557 19.1869 20.1089 18.676 20.0219 18.1848H13.2896V20.9991L17.1668 21C17.0096 21.9364 16.5035 22.7346 15.728 23.2668V25.0927H18.036C19.3836 23.8211 20.1557 21.9415 20.1557 19.7208Z" fill="#4285F4" style="fill:#4285F4;fill:color(display-p3 0.2588 0.5216 0.9569);fill-opacity:1;"/>
<path d="M15.7288 23.2668C15.0863 23.7085 14.259 23.967 13.2911 23.967C11.4215 23.967 9.83547 22.6826 9.26747 20.9514H6.88672V22.8344C8.06622 25.2206 10.4905 26.858 13.2911 26.858C15.2269 26.858 16.8531 26.209 18.0367 25.0918L15.7288 23.2668Z" fill="#34A853" style="fill:#34A853;fill:color(display-p3 0.2039 0.6588 0.3255);fill-opacity:1;"/>
<path d="M9.04351 19.5544C9.04351 19.0683 9.12298 18.5984 9.2677 18.1567V16.2736H6.88695C6.39926 17.2603 6.12488 18.3741 6.12488 19.5544C6.12488 20.7348 6.40009 21.8485 6.88695 22.8353L9.2677 20.9522C9.12298 20.5105 9.04351 20.0406 9.04351 19.5544Z" fill="#FABB05" style="fill:#FABB05;fill:color(display-p3 0.9804 0.7333 0.0196);fill-opacity:1;"/>
<path d="M13.2911 15.1411C14.3477 15.1411 15.2938 15.5121 16.0408 16.237L18.0861 14.1535C16.8439 12.9741 15.2244 12.25 13.2911 12.25C10.4913 12.25 8.06622 13.8874 6.88672 16.2736L9.26747 18.1567C9.83547 16.4254 11.4215 15.1411 13.2911 15.1411Z" fill="#E94235" style="fill:#E94235;fill:color(display-p3 0.9137 0.2588 0.2078);fill-opacity:1;"/>
</svg>
