<svg width="56" height="42" viewBox="0 0 56 42" fill="none" xmlns="http://www.w3.org/2000/svg">
<rect width="56" height="42" rx="7" fill="#FFF48D" style="fill:#FFF48D;fill:color(display-p3 1.0000 0.9569 0.5529);fill-opacity:1;"/>
<path d="M16.6482 5.53273V23.1442C16.6482 23.9873 17.3416 24.6768 18.1886 24.6768H28.7619C36.7555 24.6768 40.2197 20.2236 40.2197 14.3152C40.2197 8.40686 36.7542 4.00012 28.7606 4.00012H18.1873C17.3403 4.00012 16.6469 4.6896 16.6469 5.53273H16.6482Z" fill="white" style="fill:white;fill-opacity:1;"/>
<path d="M23.7251 8.32295V21.3366H29.4152C34.5825 21.3366 36.8226 18.4315 36.8226 14.3243C36.8226 10.2171 34.5812 7.34296 29.4152 7.34296H24.7103C24.1641 7.34296 23.7251 7.78712 23.7251 8.32424V8.32295Z" fill="#CC0066" style="fill:#CC0066;fill:color(display-p3 0.8000 0.0000 0.4000);fill-opacity:1;"/>
<path fill-rule="evenodd" clip-rule="evenodd" d="M19.5663 23.2745H28.7606C35.2216 23.2745 38.7865 20.0944 38.7865 14.3229C38.7865 10.9969 37.485 5.41003 28.7606 5.41003H19.5663C18.7503 5.41003 18.0879 6.06853 18.0879 6.88196V21.8039C18.0879 22.6161 18.7503 23.2758 19.5663 23.2758V23.2745ZM18.5798 6.88196C18.5798 6.33838 19.0188 5.90068 19.565 5.90068H28.7593C32.3165 5.90068 38.292 6.99687 38.292 14.3229C38.292 19.7794 34.904 22.7839 28.7593 22.7839H19.565C19.0188 22.7839 18.5798 22.3475 18.5798 21.8026V6.88196Z" fill="#232323" style="fill:#232323;fill:color(display-p3 0.1373 0.1373 0.1373);fill-opacity:1;"/>
<path fill-rule="evenodd" clip-rule="evenodd" d="M26.5257 12.4315C26.3527 12.3695 26.1719 12.3385 25.9756 12.3385V12.3307H24.6729V15.4734H25.9911C26.2248 15.4734 26.4275 15.427 26.6006 15.3495C26.7736 15.2643 26.9169 15.1558 27.0305 15.0164C27.1441 14.8769 27.2268 14.7065 27.2862 14.5128C27.3391 14.3191 27.3688 14.11 27.3688 13.8776C27.3688 13.6142 27.3314 13.3895 27.2629 13.1958C27.188 13.0099 27.0899 12.8472 26.9698 12.7155C26.842 12.5916 26.6987 12.4909 26.5257 12.4289V12.4315ZM26.2158 14.855C26.1177 14.886 26.0273 14.9015 25.9292 14.9015V14.9092H25.3339V12.9273H25.8155C25.9808 12.9273 26.1164 12.9505 26.23 12.997C26.3436 13.0435 26.4327 13.1209 26.5011 13.2062C26.5696 13.2914 26.6212 13.4076 26.6522 13.5315C26.6819 13.6555 26.6974 13.8027 26.6974 13.9576C26.6974 14.1358 26.6742 14.2752 26.6303 14.3992C26.5851 14.5231 26.5244 14.6161 26.4572 14.6936C26.3888 14.771 26.3062 14.8253 26.2158 14.8563V14.855Z" fill="white" style="fill:white;fill-opacity:1;"/>
<path d="M30.0879 12.3397V12.9207H28.4752V13.5947H29.9588V14.1292H28.4752V14.8962H30.1253V15.4772H27.8051V12.3345H30.0879V12.3423V12.3397Z" fill="white" style="fill:white;fill-opacity:1;"/>
<path fill-rule="evenodd" clip-rule="evenodd" d="M33.5378 15.4823L32.3926 12.3397H31.6915L30.5385 15.4823H31.2163L31.4578 14.7851H32.603L32.8367 15.4823H33.5378ZM32.0465 13.1131L32.4313 14.2661H31.6398L32.0388 13.1131H32.0465Z" fill="white" style="fill:white;fill-opacity:1;"/>
<path d="M34.6302 12.3384V14.9014H36.1215V15.4824H33.9601V12.3397H34.6302V12.3384Z" fill="white" style="fill:white;fill-opacity:1;"/>
<path d="M21.0807 15.5289C21.8967 15.5289 22.5578 14.8678 22.5578 14.0505C22.5578 13.2332 21.8967 12.5721 21.0807 12.5721C20.2647 12.5721 19.6036 13.2332 19.6036 14.0505C19.6036 14.8678 20.2647 15.5289 21.0807 15.5289Z" fill="#232323" style="fill:#232323;fill:color(display-p3 0.1373 0.1373 0.1373);fill-opacity:1;"/>
<path d="M21.9599 21.4411C20.816 21.4411 19.8992 20.4534 19.8992 19.2397V17.5211C19.8992 16.9143 20.3576 16.4159 20.9335 16.4159C21.5093 16.4159 21.9677 16.9065 21.9677 17.5211V21.4411H21.9599Z" fill="#232323" style="fill:#232323;fill:color(display-p3 0.1373 0.1373 0.1373);fill-opacity:1;"/>
<path d="M42.6638 28.2738H14.2582C14.1162 28.2738 14 28.1576 14 28.0156C14 27.8736 14.1162 27.7574 14.2582 27.7574H42.6638C42.8058 27.7574 42.922 27.8736 42.922 28.0156C42.922 28.1576 42.8058 28.2738 42.6638 28.2738Z" fill="#1D1C1C" style="fill:#1D1C1C;fill:color(display-p3 0.1137 0.1098 0.1098);fill-opacity:1;"/>
<path d="M35.8954 34.6987C35.8954 32.9711 37.1246 31.3972 39.2473 31.3972C41.37 31.3972 42.6082 32.9724 42.6082 34.6987C42.6082 36.4249 41.379 38.0002 39.2473 38.0002C37.1246 38.0002 35.8954 36.4249 35.8954 34.6987ZM40.7425 34.6987C40.7425 33.8659 40.1937 33.0976 39.2473 33.0976C38.3009 33.0976 37.7521 33.8671 37.7521 34.6987C37.7521 35.5302 38.3099 36.301 39.2473 36.301C40.1847 36.301 40.7425 35.5315 40.7425 34.6987Z" fill="#1D1C1C" style="fill:#1D1C1C;fill:color(display-p3 0.1137 0.1098 0.1098);fill-opacity:1;"/>
<path d="M34.5902 35.9252C35.2977 35.5224 35.7225 34.7529 35.7225 33.9033C35.7225 32.6418 34.8109 31.5676 33.3958 31.5676H30.4249V37.831H32.2648V36.2299H32.6095L33.6618 37.831H35.8284L34.5902 35.9252ZM33.0253 34.789H32.2648V33.0175H33.0343C33.5301 33.0175 33.8477 33.4204 33.8477 33.9033C33.8477 34.3862 33.5198 34.789 33.0253 34.789Z" fill="#1D1C1C" style="fill:#1D1C1C;fill:color(display-p3 0.1137 0.1098 0.1098);fill-opacity:1;"/>
<path d="M22.0272 31.5611L20.9233 35.2938L19.8464 31.5611H18.381L17.2951 35.2938L16.2002 31.5611H14.2583L16.483 37.8129H18.0814L19.1144 34.4094L20.1383 37.8129H21.7445L23.9691 31.5611H22.0272Z" fill="#1D1C1C" style="fill:#1D1C1C;fill:color(display-p3 0.1137 0.1098 0.1098);fill-opacity:1;"/>
<path d="M26.7529 36.2855H26.7478C26.0596 36.2855 25.5767 35.8697 25.3701 35.3197H30.0454C30.0828 35.1131 30.1022 34.9013 30.1022 34.687C30.1022 32.9646 28.8769 31.3933 26.7516 31.392V33.0886C27.4437 33.0898 27.9214 33.5056 28.1267 34.0543H23.4579C23.4204 34.2609 23.4011 34.4727 23.4011 34.687C23.4011 36.4107 24.6277 37.9834 26.7465 37.9834H26.7516V36.2855H26.7529Z" fill="#1D1C1C" style="fill:#1D1C1C;fill:color(display-p3 0.1137 0.1098 0.1098);fill-opacity:1;"/>
<path d="M26.7476 37.9821C26.8199 37.9821 26.8896 37.9795 26.9606 37.9769C27.3906 37.9549 27.7818 37.8671 28.1304 37.7264C28.479 37.5844 28.785 37.3907 29.0446 37.1557C29.3041 36.9207 29.5197 36.6457 29.6863 36.3423C29.8373 36.0673 29.9484 35.7677 30.0181 35.4565H28.0697C28.0297 35.5392 27.9832 35.6192 27.9303 35.6928C27.858 35.7948 27.7728 35.8865 27.6759 35.9653C27.5791 36.0453 27.4706 36.1125 27.3518 36.1641C27.2318 36.2157 27.1026 36.2519 26.9619 36.2713C26.8935 36.2803 26.8225 36.2855 26.7489 36.2855C26.3099 36.2855 25.9561 36.1163 25.703 35.8516L24.4364 37.1325C24.9993 37.6528 25.7805 37.9808 26.7489 37.9808L26.7476 37.9821Z" fill="url(#paint0_linear_2740_2184)" style=""/>
<path d="M26.7476 31.3906C24.9503 31.3906 23.7947 32.5217 23.4861 33.9161H25.4281C25.6605 33.4358 26.1175 33.0872 26.7476 33.0872C27.2499 33.0872 27.6398 33.3041 27.8942 33.6321L29.1724 32.3396C28.6017 31.7612 27.7805 31.3906 26.7489 31.3906H26.7476Z" fill="url(#paint1_linear_2740_2184)" style=""/>
<defs>
<linearGradient id="paint0_linear_2740_2184" x1="29.0678" y1="34.3216" x2="26.1614" y2="37.8813" gradientUnits="userSpaceOnUse">
<stop offset="0.02" stop-color="#1D1C1C" stop-opacity="0" style="stop-color:none;stop-opacity:0;"/>
<stop offset="0.68" stop-color="#1D1C1C" style="stop-color:#1D1C1C;stop-color:color(display-p3 0.1137 0.1098 0.1098);stop-opacity:1;"/>
</linearGradient>
<linearGradient id="paint1_linear_2740_2184" x1="23.9974" y1="35.0769" x2="26.9774" y2="32.1318" gradientUnits="userSpaceOnUse">
<stop offset="0.02" stop-color="#1D1C1C" stop-opacity="0" style="stop-color:none;stop-opacity:0;"/>
<stop offset="0.68" stop-color="#1D1C1C" style="stop-color:#1D1C1C;stop-color:color(display-p3 0.1137 0.1098 0.1098);stop-opacity:1;"/>
</linearGradient>
</defs>
</svg>
