<svg width="56" height="42" viewBox="0 0 56 42" fill="none" xmlns="http://www.w3.org/2000/svg">
<rect width="56" height="42" rx="7" fill="#001C5D" style="fill:#001C5D;fill:color(display-p3 0.0000 0.1098 0.3647);fill-opacity:1;"/>
<path d="M10.8654 16.0718C9.69232 16.0718 8.75 17.0325 8.75 18.1852V29.3865C8.75 30.5586 9.69232 31.5 10.8654 31.5C12.0385 31.5 12.9808 30.5586 12.9808 29.3865V18.1852C12.9808 17.0325 12.0385 16.0718 10.8654 16.0718Z" fill="#33EBC7" style="fill:#33EBC7;fill:color(display-p3 0.2000 0.9216 0.7804);fill-opacity:1;"/>
<path d="M10.8654 14.7461C12.0385 14.7461 12.9808 13.8047 12.9808 12.6327C12.9808 11.4607 12.0385 10.5192 10.8654 10.5192C9.69232 10.5192 8.75 11.4607 8.75 12.6327C8.75 13.8047 9.69232 14.7461 10.8654 14.7461Z" fill="#33EBC7" style="fill:#33EBC7;fill:color(display-p3 0.2000 0.9216 0.7804);fill-opacity:1;"/>
<path d="M23.4038 16.0526C21.3654 16.0526 20.0576 16.8212 19.2501 17.5704C18.9999 17.3399 18.7115 17.1286 18.4231 16.9556C18.2692 16.8404 18.0961 16.7443 17.9038 16.6675C17.673 16.5714 17.4231 16.5329 17.1538 16.5329C15.9808 16.5329 15.0384 17.4744 15.0384 18.6465C15.0384 19.4533 15.4807 20.1451 16.1346 20.51C16.1538 20.51 16.1538 20.5292 16.1731 20.5292C16.3077 20.6062 16.4231 20.7022 16.5 20.7791C17.0384 21.3362 17.2308 22.3162 17.2692 22.9118C17.2692 23.0654 17.2692 23.2191 17.2884 23.3345V29.3673C17.2884 30.5394 18.2308 31.5 19.4038 31.5C20.5769 31.5 21.5192 30.5586 21.5192 29.3865V22.3354C21.5192 21.2018 22.4424 20.2795 23.5769 20.2795C24.7115 20.2795 25.6346 21.2018 25.6346 22.3354V23.2383C25.6346 23.2575 25.6346 23.2767 25.6346 23.3153V29.3865C25.6346 30.5586 26.5769 31.5 27.75 31.5C28.923 31.5 29.8654 30.5586 29.8654 29.3865V23.4305C29.8654 23.3921 29.8654 23.3345 29.8654 23.2575C29.8654 22.4313 29.7115 19.7416 27.9037 17.8587C26.8076 16.6867 25.2308 16.0526 23.4038 16.0526Z" fill="#33EBC7" style="fill:#33EBC7;fill:color(display-p3 0.2000 0.9216 0.7804);fill-opacity:1;"/>
<path d="M45.7692 20.7599C45.8269 20.683 45.9037 20.6062 45.9616 20.5292C46 20.4908 46.0192 20.4332 46.0576 20.3948C46.1345 20.2795 46.2115 20.1835 46.2884 20.0681C46.2884 20.0489 46.3076 20.0489 46.3076 20.0297C46.4231 19.876 46.5191 19.7032 46.5962 19.5111V19.4919C47 18.6465 47.2116 17.6666 47.2116 16.6098C47.2116 14.5732 46.4423 13.2667 45.6922 12.4598C44.7308 11.4991 43.5576 10.5 40.1538 10.5H33.8846C32.7115 10.5 31.7499 11.4415 31.7499 12.6135C31.7499 13.7855 32.6923 14.7269 33.8653 14.7269H40.9231C42.0576 14.7269 42.9808 15.6492 42.9808 16.7827C42.9808 17.8395 42.1923 18.7041 41.1922 18.8193C40.9423 18.8385 40.6923 18.8385 40.4037 18.8385H40.0385C40.0193 18.8385 39.9999 18.8385 39.9614 18.8385H33.8846C32.7115 18.8385 31.7693 19.78 31.7693 20.9519C31.7693 22.124 32.7115 23.0654 33.8846 23.0654H40.9423C42.0768 23.0654 43 23.9877 43 25.1212C43 26.2549 42.0768 27.1771 40.9423 27.1771H40.0385C40.0193 27.1771 39.9999 27.1771 39.9614 27.1771H33.8846C32.7115 27.1771 31.7693 28.1185 31.7693 29.2906C31.7693 30.4625 32.7115 31.404 33.8846 31.404H39.8462C39.8846 31.404 39.9422 31.404 40.0193 31.404C40.846 31.404 43.5384 31.2503 45.423 29.4443C46.6154 28.3106 47.25 26.7352 47.25 24.9099C47.25 22.8734 46.4807 21.5668 45.7308 20.7599C45.7114 20.8175 45.75 20.7983 45.7692 20.7599Z" fill="#33EBC7" style="fill:#33EBC7;fill:color(display-p3 0.2000 0.9216 0.7804);fill-opacity:1;"/>
</svg>
