<svg width="56" height="42" viewBox="0 0 56 42" fill="none" xmlns="http://www.w3.org/2000/svg">
<rect width="56" height="42" rx="7" fill="#0097DB" style="fill:#0097DB;fill:color(display-p3 0.0000 0.5922 0.8588);fill-opacity:1;"/>
<path fill-rule="evenodd" clip-rule="evenodd" d="M28.1425 19.6964C30.9741 19.6964 33.2693 17.4418 33.2693 14.6606C33.2693 11.8797 30.9741 9.625 28.1425 9.625C25.311 9.625 23.0157 11.8797 23.0157 14.6606C23.0157 17.4418 25.311 19.6964 28.1425 19.6964Z" fill="white" style="fill:white;fill-opacity:1;"/>
<path fill-rule="evenodd" clip-rule="evenodd" d="M27.0152 20.8152C25.3006 20.8152 23.824 20.1607 22.885 19.4331C17.2877 20.01 13.125 20.8278 13.125 20.8278V22.9689H42.875C42.875 19.9635 42.875 18.4608 42.875 18.4608C42.875 18.4608 37.731 18.4298 31.9244 18.7349C30.9478 19.7749 29.2252 20.8152 27.0152 20.8152Z" fill="white" style="fill:white;fill-opacity:1;"/>
<path fill-rule="evenodd" clip-rule="evenodd" d="M16.6525 32.375H13.125V24.3126H16.6525V27.9408L18.7489 24.3126H22.9783L19.8813 28.4791L22.8035 32.375H18.7673L16.6768 29.3448L16.6525 32.375Z" fill="white" style="fill:white;fill-opacity:1;"/>
<path fill-rule="evenodd" clip-rule="evenodd" d="M42.8189 31.947C41.9865 32.216 40.8924 32.375 39.9135 32.375C36.4237 32.375 33.8617 31.325 33.8617 28.2713C33.8617 25.5116 36.345 24.3126 39.7396 24.3126C40.6831 24.3126 41.8815 24.4228 42.8189 24.7396L42.8177 27.4127C42.123 26.9673 41.4282 26.6896 40.4333 26.6896C39.1385 26.6896 37.8445 27.3646 37.8445 28.3443C37.8445 29.3265 39.1328 29.9991 40.4333 29.9991C41.4123 29.9991 42.123 29.7122 42.8177 29.2872L42.8189 31.947Z" fill="white" style="fill:white;fill-opacity:1;"/>
<path fill-rule="evenodd" clip-rule="evenodd" d="M27.0829 27.7295H28.8397C29.5187 27.7295 29.7847 27.4276 29.7847 26.9646C29.7847 26.4341 29.5163 26.1692 28.8887 26.1692H27.0827L27.0829 27.7295ZM27.0829 30.7359H28.922C29.6113 30.7359 29.8462 30.4226 29.8462 29.9599C29.8462 29.497 29.609 29.1644 28.9299 29.1644H27.0827L27.0829 30.7359ZM23.5555 24.3126H30.686C32.5382 24.3126 33.1453 25.1031 33.1453 26.3337C33.1453 27.7113 32.0236 28.3099 30.8713 28.3774V28.4001C32.0544 28.5019 33.2069 28.6485 33.2069 30.2745C33.2069 31.3361 32.5998 32.375 30.5625 32.375H23.5555V24.3126Z" fill="white" style="fill:white;fill-opacity:1;"/>
</svg>
