<svg width="56" height="42" viewBox="0 0 56 42" fill="none" xmlns="http://www.w3.org/2000/svg">
<rect width="56" height="42" rx="7" fill="#FFA8CD" style="fill:#FFA8CD;fill:color(display-p3 1.0000 0.6588 0.8039);fill-opacity:1;"/>
<path d="M46.7368 24.1934C45.6671 24.1934 44.8333 23.3089 44.8333 22.2347C44.8333 21.1606 45.6671 20.276 46.7368 20.276C47.8065 20.276 48.6403 21.1606 48.6403 22.2347C48.6403 23.3089 47.8065 24.1934 46.7368 24.1934ZM46.2017 26.2628C47.1143 26.2628 48.2785 25.9152 48.9237 24.5568L48.9864 24.5884C48.7034 25.3308 48.7034 25.7731 48.7034 25.8837V26.0574H51V18.412H48.7034V18.5858C48.7034 18.6964 48.7034 19.1386 48.9864 19.881L48.9237 19.9127C48.2785 18.5542 47.1143 18.2067 46.2017 18.2067C44.0153 18.2067 42.4736 19.9443 42.4736 22.2347C42.4736 24.5252 44.0153 26.2628 46.2017 26.2628ZM38.4776 18.2067C37.4392 18.2067 36.6212 18.57 35.9604 19.9127L35.8975 19.881C36.1807 19.1386 36.1807 18.6964 36.1807 18.5858V18.412H33.8838V26.0574H36.2436V22.0293C36.2436 20.971 36.8572 20.3075 37.8483 20.3075C38.8394 20.3075 39.3271 20.8762 39.3271 22.0135V26.0574H41.6869V21.1922C41.6869 19.4546 40.3337 18.2067 38.4776 18.2067ZM30.47 19.9127L30.4071 19.881C30.6902 19.1386 30.6902 18.6964 30.6902 18.5858V18.412H28.3934V26.0574H30.7532L30.7689 22.3769C30.7689 21.3027 31.3352 20.6551 32.2635 20.6551C32.5151 20.6551 32.7197 20.6867 32.9557 20.7499V18.412C31.9173 18.1909 30.9892 18.5858 30.47 19.9127ZM22.9659 24.1934C21.8961 24.1934 21.0623 23.3089 21.0623 22.2347C21.0623 21.1606 21.8961 20.276 22.9659 20.276C24.0356 20.276 24.8694 21.1606 24.8694 22.2347C24.8694 23.3089 24.0356 24.1934 22.9659 24.1934ZM22.431 26.2628C23.3434 26.2628 24.5076 25.9152 25.1526 24.5568L25.2155 24.5884C24.9323 25.3308 24.9323 25.7731 24.9323 25.8837V26.0574H27.2292V18.412H24.9323V18.5858C24.9323 18.6964 24.9323 19.1386 25.2155 19.881L25.1526 19.9127C24.5076 18.5542 23.3434 18.2067 22.431 18.2067C20.2442 18.2067 18.7025 19.9443 18.7025 22.2347C18.7025 24.5252 20.2442 26.2628 22.431 26.2628ZM15.4145 26.0574H17.7743V15H15.4145V26.0574ZM13.684 15H11.277C11.277 16.9746 10.0657 18.7437 8.22504 20.0074L7.50136 20.5129V15H5V26.0574H7.50136V20.5761L11.6389 26.0574H14.6909L10.7107 20.813C12.5198 19.502 13.6998 17.4642 13.684 15Z" fill="#0B051D" style="fill:#0B051D;fill:color(display-p3 0.0431 0.0196 0.1137);fill-opacity:1;"/>
</svg>
