<svg width="56" height="42" viewBox="0 0 56 42" fill="none" xmlns="http://www.w3.org/2000/svg">
<rect width="56" height="42" rx="7" fill="white" style="fill:white;fill-opacity:1;"/>
<rect width="56" height="42" rx="7" fill="white" style="fill:white;fill-opacity:1;"/>
<rect width="26" height="24.9664" transform="translate(15 4.92053)" fill="white" style="fill:white;fill-opacity:1;"/>
<path fill-rule="evenodd" clip-rule="evenodd" d="M27.9302 29.8869H38.6709C41.1219 29.8869 41.1475 27.2809 40.8971 25.995C40.7608 25.1297 39.2909 25.1433 39.1291 25.995V26.9982C39.1287 27.2194 39.0406 27.4314 38.8842 27.5879C38.7277 27.7443 38.5157 27.8323 38.2945 27.8328H17.7055C17.4843 27.8323 17.2723 27.7443 17.1158 27.5879C16.9594 27.4314 16.8713 27.2194 16.8709 26.9982V25.995C16.7091 25.1433 15.2392 25.1297 15.1029 25.995C14.8525 27.2809 14.8781 29.8869 17.3291 29.8869H27.9302ZM20.3387 4.92053H36.8978C38.0612 4.92053 39.0133 5.92886 39.0133 7.16032V8.22997C39.0133 9.74246 36.9694 9.73565 36.9694 8.24019V7.65767C36.9694 7.47698 36.8976 7.30369 36.7698 7.17592C36.6421 7.04815 36.4688 6.97637 36.2881 6.97637H19.6949C19.5142 6.97637 19.3409 7.04815 19.2131 7.17592C19.0854 7.30369 19.0136 7.47698 19.0136 7.65767V8.22997C19.0136 9.73395 17.0617 9.72373 17.0617 8.26233V7.16202C17.0668 5.93057 18.0172 4.92053 19.1805 4.92053H20.3387Z" fill="#FF0000" style="fill:#FF0000;fill:color(display-p3 1.0000 0.0000 0.0000);fill-opacity:1;"/>
<path fill-rule="evenodd" clip-rule="evenodd" d="M38.5959 17.2197C39.1645 17.4736 39.6488 17.8844 39.9921 18.4039C40.3355 18.9234 40.5235 19.5301 40.5342 20.1527C40.5342 21.9548 38.9604 23.4298 37.0374 23.4298H31.6432C31.4092 23.4367 31.1818 23.3513 31.0103 23.1919C30.8389 23.0325 30.737 22.812 30.7268 22.5781V12.3109C30.7277 12.0724 30.823 11.8439 30.9918 11.6754C31.1606 11.5069 31.3893 11.412 31.6278 11.4116H36.1193C36.7928 11.41 37.4518 11.6068 38.0141 11.9774C38.5764 12.348 39.0171 12.8759 39.2812 13.4954C39.5454 14.1149 39.6212 14.7984 39.4993 15.4607C39.3775 16.1231 39.0632 16.7348 38.5959 17.2197ZM34.5711 16.3851H36.2828V16.3664C36.667 16.3061 37.0171 16.111 37.2705 15.8161C37.524 15.5211 37.6641 15.1456 37.6659 14.7568C37.6645 14.3253 37.4926 13.9119 37.1875 13.6069C36.8824 13.3018 36.469 13.1298 36.0376 13.1285H32.5885V21.6448H36.9607C37.1861 21.6519 37.4106 21.6137 37.621 21.5324C37.8313 21.4511 38.0232 21.3284 38.1851 21.1715C38.3471 21.0146 38.4759 20.8268 38.5638 20.6191C38.6518 20.4115 38.6971 20.1883 38.6971 19.9628C38.6971 19.7373 38.6518 19.5141 38.5638 19.3065C38.4759 19.0988 38.3471 18.911 38.1851 18.7541C38.0232 18.5972 37.8313 18.4744 37.621 18.3931C37.4106 18.3118 37.1861 18.2736 36.9607 18.2808H36.2794H34.5711C34.4469 18.2808 34.324 18.2564 34.2093 18.2089C34.0946 18.1614 33.9904 18.0917 33.9026 18.0039C33.8148 17.9162 33.7452 17.812 33.6977 17.6973C33.6502 17.5826 33.6258 17.4596 33.6258 17.3355C33.6258 17.2114 33.6502 17.0884 33.6977 16.9738C33.7452 16.8591 33.8148 16.7549 33.9026 16.6671C33.9904 16.5793 34.0946 16.5097 34.2093 16.4622C34.324 16.4147 34.4469 16.3902 34.5711 16.3902" fill="#1D1D1B" style="fill:#1D1D1B;fill:color(display-p3 0.1137 0.1137 0.1059);fill-opacity:1;"/>
<path d="M29.8701 22.4061C29.8909 22.5503 29.8825 22.6973 29.8452 22.8381C29.8079 22.979 29.7426 23.1109 29.6532 23.226C29.5638 23.341 29.452 23.4368 29.3247 23.5077C29.1974 23.5785 29.057 23.623 28.9121 23.6383C28.7672 23.6537 28.6207 23.6397 28.4814 23.5971C28.342 23.5545 28.2127 23.4842 28.1011 23.3905C27.9895 23.2968 27.898 23.1815 27.832 23.0515C27.7661 22.9216 27.727 22.7797 27.7171 22.6343L26.8263 14.474L23.6906 22.4538V22.4742V22.4913V22.5083V22.5185V22.5338V22.5509C23.6219 22.6712 23.5298 22.7766 23.4198 22.8609L23.4028 22.8745C23.3458 22.926 23.2829 22.9706 23.2154 23.0073L23.195 23.0176L23.1762 23.0278H23.1643H23.1507H23.1388H23.1252H23.1149H23.103H23.0928H23.0826H23.0689C22.9671 23.0641 22.8602 23.0843 22.7521 23.0874H22.6738C22.5523 23.0839 22.4324 23.0591 22.3195 23.0142H22.3042H22.2889H22.2752H22.265H22.2514H22.2395H22.2309L22.2122 23.0039L22.1952 22.9937H22.185C22.1245 22.9615 22.0674 22.9233 22.0146 22.8796L21.9789 22.8472L21.9516 22.8217L21.8869 22.8047L21.8545 22.7689C21.8109 22.7161 21.7726 22.659 21.7404 22.5986V22.5883L21.7302 22.5713L21.72 22.5526V22.5406V22.527V22.5168V22.5015V22.4878V22.4725L18.5263 14.474L17.6389 22.6343C17.6087 22.9196 17.4663 23.1812 17.2432 23.3615C17.0201 23.5418 16.7345 23.6261 16.4492 23.5958C16.164 23.5656 15.9024 23.4232 15.7221 23.2001C15.5418 22.977 15.4575 22.6914 15.4877 22.4061L16.5335 12.7861C16.5588 12.5595 16.627 12.3398 16.7345 12.1388C16.8687 11.8877 17.0607 11.6721 17.2947 11.5098C17.5286 11.3475 17.7979 11.2432 18.0801 11.2054H18.138C18.2293 11.1987 18.3209 11.1987 18.4122 11.2054C18.5224 11.2098 18.6319 11.2247 18.7393 11.2497C19.0218 11.3144 19.2842 11.4473 19.5036 11.6367C19.723 11.8261 19.8927 12.0663 19.998 12.3364L22.6789 19.112L25.3547 12.3143C25.4806 11.9921 25.6975 11.7135 25.9792 11.5126C26.2608 11.3118 26.5948 11.1973 26.9405 11.1833C27.0317 11.1765 27.1234 11.1765 27.2147 11.1833H27.2726C27.5547 11.2213 27.8238 11.3257 28.0578 11.488C28.2917 11.6502 28.4838 11.8657 28.6182 12.1167C28.6704 12.2174 28.7143 12.3222 28.7493 12.4301C28.7838 12.5411 28.8071 12.6552 28.8192 12.7707L29.8701 22.4061Z" fill="#1D1D1B" style="fill:#1D1D1B;fill:color(display-p3 0.1137 0.1137 0.1059);fill-opacity:1;"/>
<path d="M24.8521 34.7694C24.7868 35.0202 24.7195 35.2894 24.6481 35.5851C24.5768 35.8808 24.5054 36.146 24.4442 36.4009C24.383 36.6558 24.3116 36.8883 24.2403 37.0861C24.2021 37.2268 24.1502 37.3634 24.0853 37.4939C24.0453 37.5587 23.988 37.6109 23.9199 37.6448C23.8518 37.6787 23.7756 37.6928 23.6998 37.6856C23.6309 37.6839 23.5624 37.6736 23.4959 37.655C23.4516 37.6416 23.4105 37.6191 23.3754 37.5889C23.3403 37.5587 23.3119 37.5215 23.292 37.4797C23.2274 37.3433 23.1755 37.2013 23.137 37.0555C23.0758 36.8516 23.0106 36.6028 22.9331 36.3275C22.8556 36.0521 22.7964 35.7626 22.7291 35.4546C22.6618 35.1467 22.5966 34.8612 22.5436 34.5981C22.4905 34.335 22.4416 34.1087 22.4049 33.9251C22.3682 33.7416 22.3478 33.6294 22.3417 33.5907C22.3405 33.5751 22.3405 33.5594 22.3417 33.5438V33.5173C22.3405 33.4808 22.3481 33.4446 22.3637 33.4116C22.3793 33.3787 22.4025 33.3499 22.4314 33.3276C22.4939 33.2782 22.572 33.2529 22.6516 33.2562C22.7234 33.2531 22.7944 33.2716 22.8556 33.3093C22.9144 33.3532 22.9539 33.4183 22.9657 33.4908C22.9657 33.4908 22.9779 33.5662 23.0024 33.6947C23.0269 33.8232 23.0615 33.9761 23.1003 34.1658C23.139 34.3554 23.1839 34.5736 23.2308 34.8122C23.2777 35.0508 23.3287 35.2935 23.3838 35.5382C23.4388 35.783 23.4898 36.0175 23.5428 36.2479C23.5958 36.4784 23.6427 36.6741 23.6897 36.8393C23.7345 36.6843 23.7855 36.5069 23.8406 36.3071C23.8956 36.1072 23.9527 35.8992 24.0078 35.6953C24.0628 35.4913 24.1138 35.269 24.1648 35.057C24.2158 34.8449 24.2627 34.6491 24.3076 34.4615C24.3524 34.2739 24.3871 34.1168 24.4197 33.9741C24.4524 33.8313 24.4768 33.7273 24.4952 33.658C24.5158 33.5778 24.5615 33.5063 24.6257 33.4541C24.688 33.3975 24.768 33.3643 24.8521 33.3602C24.9418 33.3561 25.0301 33.3843 25.1009 33.4398C25.1643 33.4913 25.2076 33.5635 25.2232 33.6437C25.2783 33.866 25.3313 34.1189 25.3904 34.3962C25.4496 34.6736 25.5128 34.953 25.576 35.2364C25.6392 35.5199 25.7086 35.7993 25.78 36.0725C25.8513 36.3458 25.9166 36.5864 25.9839 36.7965C26.0287 36.6313 26.0797 36.4355 26.1328 36.2071C26.1858 35.9787 26.2368 35.7422 26.2918 35.4974C26.3469 35.2527 26.4019 35.0162 26.4509 34.7776C26.4998 34.539 26.5488 34.3248 26.5896 34.1352C26.6303 33.9455 26.665 33.7905 26.6874 33.6723C26.7099 33.554 26.7262 33.4887 26.7262 33.4846C26.7403 33.4136 26.7794 33.35 26.8363 33.3052C26.8973 33.267 26.9684 33.2485 27.0403 33.2522C27.1204 33.2494 27.199 33.2746 27.2625 33.3235C27.2911 33.3461 27.314 33.375 27.3296 33.4079C27.3451 33.4408 27.3529 33.4768 27.3523 33.5132V33.5397C27.3532 33.556 27.3532 33.5723 27.3523 33.5886C27.3523 33.6254 27.3258 33.7355 27.287 33.9231C27.2483 34.1107 27.2014 34.331 27.1463 34.594C27.0912 34.8571 27.028 35.1426 26.9607 35.4465C26.8934 35.7503 26.822 36.0399 26.7568 36.3152C26.6915 36.5905 26.6263 36.8332 26.5529 37.0412C26.5146 37.1858 26.4627 37.3265 26.3979 37.4613C26.3567 37.5469 26.2834 37.6129 26.1939 37.6448C26.1281 37.6671 26.0594 37.6795 25.99 37.6816C25.9622 37.6836 25.9342 37.6836 25.9064 37.6816C25.8663 37.6759 25.8268 37.667 25.7881 37.655C25.7443 37.6394 25.7031 37.6175 25.6658 37.5898C25.623 37.5583 25.5892 37.5161 25.5679 37.4674C25.5083 37.3271 25.4592 37.1826 25.421 37.0351C25.3619 36.8312 25.3007 36.6068 25.2334 36.354C25.1661 36.1011 25.1029 35.8319 25.0295 35.5545C24.9561 35.2772 24.9051 35.0182 24.85 34.7776" fill="#1D1D1B" style="fill:#1D1D1B;fill:color(display-p3 0.1137 0.1137 0.1059);fill-opacity:1;"/>
<path d="M28.4595 36.4095C28.3902 36.6297 28.329 36.8337 28.278 37.0213C28.227 37.2089 28.174 37.3619 28.1292 37.4822C28.1183 37.5633 28.0757 37.6368 28.0107 37.6865C27.9457 37.7363 27.8636 37.7581 27.7825 37.7473C27.7013 37.7365 27.6278 37.6939 27.5781 37.6289C27.5284 37.5638 27.5065 37.4817 27.5174 37.4006C27.517 37.3701 27.5218 37.3398 27.5316 37.3109L27.6173 37.0274C27.6662 36.8683 27.7294 36.6705 27.8069 36.4299C27.8844 36.1893 27.9721 35.9323 28.0659 35.6488C28.1597 35.3654 28.2576 35.0839 28.3576 34.8066C28.4575 34.5292 28.5615 34.2703 28.6553 34.0317C28.7336 33.8312 28.8256 33.6363 28.9306 33.4484C28.9604 33.3803 29.013 33.3247 29.0795 33.2914C29.1601 33.2607 29.2462 33.2469 29.3323 33.2506C29.4209 33.2488 29.509 33.2647 29.5913 33.2975C29.6256 33.3139 29.6562 33.3369 29.6814 33.3653C29.7066 33.3937 29.7259 33.4268 29.7382 33.4627C29.8034 33.5993 29.8809 33.7849 29.9686 34.0153C30.0563 34.2458 30.1542 34.4966 30.2521 34.7658C30.35 35.035 30.456 35.3083 30.5457 35.5815C30.6355 35.8548 30.7313 36.1199 30.8109 36.3606C30.8904 36.6012 30.9597 36.8072 31.0148 36.9724C31.0698 37.1375 31.1086 37.2517 31.1208 37.3027C31.1307 37.3316 31.1355 37.3619 31.1351 37.3924C31.1372 37.4305 31.1307 37.4686 31.1163 37.5038C31.1018 37.5391 31.0797 37.5707 31.0515 37.5964C31.0192 37.6252 30.9814 37.6471 30.9404 37.6607C30.8994 37.6744 30.856 37.6796 30.8129 37.6759C30.7494 37.6819 30.6861 37.6637 30.6355 37.6249C30.5927 37.5848 30.561 37.5342 30.5437 37.4781C30.4968 37.3578 30.4438 37.2048 30.3806 37.0172C30.3173 36.8296 30.2521 36.6257 30.1766 36.4054H28.4534M29.9829 35.8079C29.885 35.5102 29.7953 35.2369 29.7076 34.9922C29.6199 34.7475 29.5424 34.5129 29.4445 34.2805C29.4221 34.2295 29.3976 34.1724 29.3731 34.103C29.3487 34.0337 29.3323 33.999 29.3283 33.9868C29.3092 34.0217 29.2941 34.0586 29.2834 34.0969C29.2569 34.1703 29.2345 34.2295 29.21 34.2805C29.1182 34.5048 29.0305 34.7413 28.9449 34.9922C28.8592 35.243 28.7695 35.5142 28.6736 35.8079H29.9829Z" fill="#1D1D1B" style="fill:#1D1D1B;fill:color(display-p3 0.1137 0.1137 0.1059);fill-opacity:1;"/>
<path d="M32.3262 35.9507C32.3023 35.9267 32.2805 35.9008 32.2609 35.8732L32.1937 35.7794C32.1284 35.6876 32.0611 35.5754 31.9897 35.4449C31.9183 35.3144 31.8368 35.1757 31.7613 35.0371C31.6859 34.8984 31.6124 34.7414 31.5431 34.5925C31.4738 34.4436 31.4044 34.305 31.3494 34.1846C31.2943 34.0643 31.2413 33.944 31.2005 33.8502C31.1699 33.7844 31.1446 33.7162 31.125 33.6463C31.1171 33.6293 31.111 33.6115 31.1067 33.5932C31.1067 33.5932 31.1067 33.5667 31.1067 33.5422C31.1065 33.5042 31.1139 33.4666 31.1286 33.4315C31.1434 33.3965 31.165 33.3648 31.1923 33.3383C31.2244 33.309 31.2621 33.2865 31.3031 33.2721C31.3441 33.2578 31.3876 33.2518 31.4309 33.2547C31.4679 33.2505 31.5054 33.2546 31.5407 33.2666C31.5759 33.2786 31.6081 33.2982 31.6349 33.324C31.6707 33.3642 31.699 33.4105 31.7185 33.4607L31.7858 33.6116C31.8205 33.6891 31.8633 33.7849 31.9122 33.8991C31.9612 34.0133 32.0203 34.1398 32.0856 34.2784C32.1508 34.4171 32.214 34.5497 32.2895 34.6863L32.4832 35.0677C32.5358 35.1703 32.5943 35.2697 32.6586 35.3654C32.7626 35.203 32.8573 35.0348 32.9421 34.8617C33.042 34.6578 33.146 34.464 33.2296 34.2662C33.3132 34.0684 33.4009 33.895 33.4703 33.7462L33.5906 33.4627C33.6108 33.4124 33.6398 33.3662 33.6762 33.3261C33.7023 33.2992 33.7344 33.2789 33.7699 33.2669C33.8053 33.2548 33.8431 33.2513 33.8802 33.2567C33.9235 33.2536 33.9671 33.2594 34.0081 33.2738C34.0492 33.2882 34.0868 33.3109 34.1188 33.3404C34.1468 33.3663 34.1689 33.3979 34.1837 33.433C34.1985 33.4682 34.2055 33.5061 34.2044 33.5443C34.2065 33.5612 34.2065 33.5783 34.2044 33.5953L34.1881 33.6483L34.1086 33.8522C34.0698 33.9481 34.0209 34.0562 33.9617 34.1867C33.9026 34.3172 33.8414 34.4538 33.7721 34.5945C33.7027 34.7352 33.6253 34.8902 33.5498 35.0391C33.4743 35.188 33.3989 35.3246 33.3234 35.447C33.248 35.5693 33.1766 35.6937 33.1195 35.7835C33.0804 35.8405 33.036 35.8938 32.9869 35.9425V37.37C32.9889 37.4116 32.9824 37.4532 32.9676 37.4921C32.9529 37.5311 32.9303 37.5666 32.9013 37.5964C32.8429 37.6541 32.7641 37.6864 32.6821 37.6864C32.6 37.6864 32.5212 37.6541 32.4628 37.5964C32.4316 37.566 32.4069 37.5295 32.3904 37.4892C32.3739 37.4488 32.3659 37.4055 32.367 37.3619V35.9344" fill="#1D1D1B" style="fill:#1D1D1B;fill:color(display-p3 0.1137 0.1137 0.1059);fill-opacity:1;"/>
</svg>
