<svg width="56" height="42" viewBox="0 0 56 42" fill="none" xmlns="http://www.w3.org/2000/svg">
<rect width="56" height="42" rx="7" fill="white" style="fill:white;fill-opacity:1;"/>
<rect width="56" height="42" rx="7" fill="white" style="fill:white;fill-opacity:1;"/>
<rect width="26" height="24.9664" transform="translate(15 4.92053)" fill="white" style="fill:white;fill-opacity:1;"/>
<path fill-rule="evenodd" clip-rule="evenodd" d="M27.9302 29.8869H38.6709C41.1219 29.8869 41.1475 27.2809 40.8971 25.995C40.7608 25.1297 39.2909 25.1433 39.1291 25.995V26.9982C39.1287 27.2194 39.0406 27.4314 38.8842 27.5879C38.7277 27.7443 38.5157 27.8323 38.2945 27.8328H17.7055C17.4843 27.8323 17.2723 27.7443 17.1158 27.5879C16.9594 27.4314 16.8713 27.2194 16.8709 26.9982V25.995C16.7091 25.1433 15.2392 25.1297 15.1029 25.995C14.8525 27.2809 14.8781 29.8869 17.3291 29.8869H27.9302ZM20.3387 4.92053H36.8978C38.0612 4.92053 39.0133 5.92886 39.0133 7.16032V8.22997C39.0133 9.74246 36.9694 9.73565 36.9694 8.24019V7.65767C36.9694 7.47698 36.8976 7.30369 36.7698 7.17592C36.6421 7.04815 36.4688 6.97637 36.2881 6.97637H19.6949C19.5142 6.97637 19.3409 7.04815 19.2131 7.17592C19.0854 7.30369 19.0136 7.47698 19.0136 7.65767V8.22997C19.0136 9.73395 17.0617 9.72373 17.0617 8.26233V7.16202C17.0668 5.93057 18.0172 4.92053 19.1805 4.92053H20.3387Z" fill="#3D73B9" style="fill:#3D73B9;fill:color(display-p3 0.2392 0.4510 0.7255);fill-opacity:1;"/>
<path fill-rule="evenodd" clip-rule="evenodd" d="M38.5959 17.2197C39.1645 17.4736 39.6488 17.8844 39.9921 18.4039C40.3355 18.9234 40.5235 19.5301 40.5342 20.1527C40.5342 21.9548 38.9604 23.4298 37.0374 23.4298H31.6432C31.4092 23.4367 31.1818 23.3513 31.0103 23.1919C30.8389 23.0325 30.737 22.812 30.7268 22.5781V12.3109C30.7277 12.0724 30.823 11.8439 30.9918 11.6754C31.1606 11.5069 31.3893 11.412 31.6278 11.4116H36.1193C36.7928 11.41 37.4518 11.6068 38.0141 11.9774C38.5764 12.348 39.0171 12.8759 39.2812 13.4954C39.5454 14.1149 39.6212 14.7984 39.4993 15.4607C39.3775 16.1231 39.0632 16.7348 38.5959 17.2197ZM34.5711 16.3851H36.2828V16.3664C36.667 16.3061 37.0171 16.111 37.2705 15.8161C37.524 15.5211 37.6641 15.1456 37.6659 14.7568C37.6645 14.3253 37.4926 13.9119 37.1875 13.6069C36.8824 13.3018 36.469 13.1298 36.0376 13.1285H32.5885V21.6448H36.9607C37.1861 21.6519 37.4106 21.6137 37.621 21.5324C37.8313 21.4511 38.0232 21.3284 38.1851 21.1715C38.3471 21.0146 38.4759 20.8268 38.5638 20.6191C38.6518 20.4115 38.6971 20.1883 38.6971 19.9628C38.6971 19.7373 38.6518 19.5141 38.5638 19.3065C38.4759 19.0988 38.3471 18.911 38.1851 18.7541C38.0232 18.5972 37.8313 18.4744 37.621 18.3931C37.4106 18.3118 37.1861 18.2736 36.9607 18.2808H36.2794H34.5711C34.4469 18.2808 34.324 18.2564 34.2093 18.2089C34.0946 18.1614 33.9904 18.0917 33.9026 18.0039C33.8148 17.9162 33.7452 17.812 33.6977 17.6973C33.6502 17.5826 33.6258 17.4596 33.6258 17.3355C33.6258 17.2114 33.6502 17.0884 33.6977 16.9738C33.7452 16.8591 33.8148 16.7549 33.9026 16.6671C33.9904 16.5793 34.0946 16.5097 34.2093 16.4622C34.324 16.4147 34.4469 16.3902 34.5711 16.3902" fill="#1D1D1B" style="fill:#1D1D1B;fill:color(display-p3 0.1137 0.1137 0.1059);fill-opacity:1;"/>
<path d="M29.8701 22.4061C29.8909 22.5503 29.8825 22.6973 29.8452 22.8381C29.8079 22.979 29.7426 23.1109 29.6532 23.226C29.5638 23.341 29.452 23.4368 29.3247 23.5077C29.1974 23.5785 29.057 23.623 28.9121 23.6383C28.7672 23.6537 28.6207 23.6397 28.4814 23.5971C28.342 23.5545 28.2127 23.4842 28.1011 23.3905C27.9895 23.2968 27.898 23.1815 27.832 23.0515C27.7661 22.9216 27.727 22.7797 27.7171 22.6343L26.8263 14.474L23.6906 22.4538V22.4742V22.4913V22.5083V22.5185V22.5338V22.5509C23.6219 22.6712 23.5298 22.7766 23.4198 22.8609L23.4028 22.8745C23.3458 22.926 23.2829 22.9706 23.2154 23.0073L23.195 23.0176L23.1762 23.0278H23.1643H23.1507H23.1388H23.1252H23.1149H23.103H23.0928H23.0826H23.0689C22.9671 23.0641 22.8602 23.0843 22.7521 23.0874H22.6738C22.5523 23.0839 22.4324 23.0591 22.3195 23.0142H22.3042H22.2889H22.2752H22.265H22.2514H22.2395H22.2309L22.2122 23.0039L22.1952 22.9937H22.185C22.1245 22.9615 22.0674 22.9233 22.0146 22.8796L21.9789 22.8472L21.9516 22.8217L21.8869 22.8047L21.8545 22.7689C21.8109 22.7161 21.7726 22.659 21.7404 22.5986V22.5883L21.7302 22.5713L21.72 22.5526V22.5406V22.527V22.5168V22.5015V22.4878V22.4725L18.5263 14.474L17.6389 22.6343C17.6087 22.9196 17.4663 23.1812 17.2432 23.3615C17.0201 23.5418 16.7345 23.6261 16.4492 23.5958C16.164 23.5656 15.9024 23.4232 15.7221 23.2001C15.5418 22.977 15.4575 22.6914 15.4877 22.4061L16.5335 12.7861C16.5588 12.5595 16.627 12.3398 16.7345 12.1388C16.8687 11.8877 17.0607 11.6721 17.2947 11.5098C17.5286 11.3475 17.7979 11.2432 18.0801 11.2054H18.138C18.2293 11.1987 18.3209 11.1987 18.4122 11.2054C18.5224 11.2098 18.6319 11.2247 18.7393 11.2497C19.0218 11.3144 19.2842 11.4473 19.5036 11.6367C19.723 11.8261 19.8927 12.0663 19.998 12.3364L22.6789 19.112L25.3547 12.3143C25.4806 11.9921 25.6975 11.7135 25.9792 11.5126C26.2608 11.3118 26.5948 11.1973 26.9405 11.1833C27.0317 11.1765 27.1234 11.1765 27.2147 11.1833H27.2726C27.5547 11.2213 27.8238 11.3257 28.0578 11.488C28.2917 11.6502 28.4838 11.8657 28.6182 12.1167C28.6704 12.2174 28.7143 12.3222 28.7493 12.4301C28.7838 12.5411 28.8071 12.6552 28.8192 12.7707L29.8701 22.4061Z" fill="#1D1D1B" style="fill:#1D1D1B;fill:color(display-p3 0.1137 0.1137 0.1059);fill-opacity:1;"/>
<path d="M20.6523 34.0896C20.6523 34.0055 20.6857 33.9248 20.7452 33.8653C20.8047 33.8059 20.8853 33.7724 20.9694 33.7724C21.0536 33.7724 21.1342 33.8059 21.1937 33.8653C21.2532 33.9248 21.2866 34.0055 21.2866 34.0896V35.8022C21.2861 36.1788 21.1364 36.5398 20.8703 36.8062C20.6042 37.0727 20.2434 37.2228 19.8669 37.2238C19.4903 37.2233 19.1293 37.0737 18.8628 36.8076C18.5964 36.5415 18.4463 36.1807 18.4453 35.8041V34.0915C18.4419 34.0479 18.4476 34.0041 18.462 33.9628C18.4764 33.9216 18.4991 33.8837 18.5288 33.8517C18.5585 33.8196 18.5945 33.794 18.6345 33.7765C18.6746 33.759 18.7178 33.75 18.7615 33.75C18.8052 33.75 18.8484 33.759 18.8885 33.7765C18.9285 33.794 18.9645 33.8196 18.9942 33.8517C19.0239 33.8837 19.0466 33.9216 19.061 33.9628C19.0754 34.0041 19.0811 34.0479 19.0777 34.0915V35.8041C19.0797 36.0131 19.1637 36.213 19.3117 36.3606C19.4596 36.5082 19.6597 36.5918 19.8687 36.5932C20.078 36.5923 20.2785 36.5085 20.4263 36.3604C20.5742 36.2122 20.6574 36.0115 20.6579 35.8022L20.6523 34.0896Z" fill="#1D1D1B" style="fill:#1D1D1B;fill:color(display-p3 0.1137 0.1137 0.1059);fill-opacity:1;"/>
<path d="M23.6522 36.5914C23.7363 36.5914 23.817 36.6248 23.8765 36.6843C23.936 36.7437 23.9694 36.8244 23.9694 36.9085C23.9694 36.9926 23.936 37.0733 23.8765 37.1328C23.817 37.1923 23.7363 37.2257 23.6522 37.2257H22.7716C22.4565 37.2257 22.1542 37.1005 21.9313 36.8776C21.7085 36.6547 21.5833 36.3525 21.5833 36.0373V34.0896C21.5833 34.006 21.6165 33.9258 21.6756 33.8666C21.7347 33.8075 21.8149 33.7743 21.8985 33.7743C21.9822 33.7743 22.0624 33.8075 22.1215 33.8666C22.1806 33.9258 22.2138 34.006 22.2138 34.0896V36.0335C22.2138 36.182 22.2728 36.3243 22.3778 36.4293C22.4827 36.5343 22.6251 36.5932 22.7735 36.5932H23.6522V36.5914Z" fill="#1D1D1B" style="fill:#1D1D1B;fill:color(display-p3 0.1137 0.1137 0.1059);fill-opacity:1;"/>
<path d="M18.3221 36.8731C18.3298 36.9157 18.3287 36.9594 18.3189 37.0015C18.3091 37.0437 18.2908 37.0834 18.265 37.1182C18.2393 37.153 18.2067 37.1821 18.1693 37.2039C18.1319 37.2256 18.0904 37.2395 18.0474 37.2446C18.0044 37.2497 17.9609 37.2459 17.9194 37.2335C17.8779 37.2212 17.8394 37.2004 17.8063 37.1726C17.7731 37.1448 17.746 37.1105 17.7266 37.0718C17.7072 37.0332 17.6959 36.9909 17.6934 36.9477L17.4229 34.6661L16.4546 36.9048C16.4214 36.9819 16.3589 37.0427 16.2809 37.0738C16.2029 37.1049 16.1158 37.1039 16.0386 37.0708C15.9644 37.0389 15.9056 36.9793 15.8744 36.9048L14.9062 34.6661L14.6338 36.9477C14.6313 36.9909 14.62 37.0332 14.6006 37.0718C14.5812 37.1105 14.5541 37.1448 14.5209 37.1726C14.4878 37.2004 14.4493 37.2212 14.4078 37.2335C14.3663 37.2459 14.3228 37.2497 14.2798 37.2446C14.2368 37.2395 14.1953 37.2256 14.1579 37.2039C14.1205 37.1821 14.0879 37.153 14.0621 37.1182C14.0364 37.0834 14.0181 37.0437 14.0083 37.0015C13.9984 36.9594 13.9974 36.9157 14.0051 36.8731L14.3241 34.2239C14.3343 34.1404 14.3651 34.0608 14.4136 33.9921C14.4621 33.9234 14.5268 33.8678 14.6021 33.8303C14.6219 33.8195 14.6425 33.8101 14.6636 33.8023H14.6879C14.7181 33.7918 14.7494 33.7849 14.7812 33.7817C14.8606 33.7707 14.9416 33.7775 15.0181 33.8017C15.0946 33.8259 15.1647 33.8669 15.2233 33.9217C15.2469 33.9437 15.2681 33.9681 15.2868 33.9944C15.3005 34.0135 15.313 34.0334 15.3241 34.0541C15.331 34.0656 15.3372 34.0774 15.3427 34.0896L16.1636 35.9925L16.9845 34.0747C17.0182 33.9985 17.0697 33.9314 17.1346 33.8792C17.1995 33.8269 17.2759 33.791 17.3576 33.7743C17.3884 33.768 17.4195 33.7636 17.4509 33.7612H17.5479C17.6286 33.7703 17.7062 33.7977 17.7748 33.8414C17.8433 33.885 17.901 33.9438 17.9434 34.0131C17.9611 34.0419 17.9755 34.0725 17.9863 34.1045C17.9941 34.1244 17.9997 34.145 18.0031 34.1661C18.004 34.1797 18.004 34.1934 18.0031 34.2071L18.3221 36.8731Z" fill="#1D1D1B" style="fill:#1D1D1B;fill:color(display-p3 0.1137 0.1137 0.1059);fill-opacity:1;"/>
<path d="M25.0327 36.9086C25.0327 36.9927 24.9993 37.0733 24.9398 37.1328C24.8804 37.1923 24.7997 37.2257 24.7156 37.2257C24.6315 37.2257 24.5508 37.1923 24.4913 37.1328C24.4318 37.0733 24.3984 36.9927 24.3984 36.9086V34.4068H23.4973C23.4132 34.4068 23.3325 34.3734 23.2731 34.3139C23.2136 34.2544 23.1802 34.1737 23.1802 34.0896C23.1802 34.0055 23.2136 33.9248 23.2731 33.8654C23.3325 33.8059 23.4132 33.7725 23.4973 33.7725H25.9338C26.0179 33.7725 26.0986 33.8059 26.1581 33.8654C26.2176 33.9248 26.251 34.0055 26.251 34.0896C26.251 34.1737 26.2176 34.2544 26.1581 34.3139C26.0986 34.3734 26.0179 34.4068 25.9338 34.4068H25.0327V36.9086Z" fill="#1D1D1B" style="fill:#1D1D1B;fill:color(display-p3 0.1137 0.1137 0.1059);fill-opacity:1;"/>
<path d="M27.0103 36.9086C27.0103 36.9927 26.9769 37.0733 26.9174 37.1328C26.8579 37.1923 26.7772 37.2257 26.6931 37.2257C26.609 37.2257 26.5283 37.1923 26.4689 37.1328C26.4094 37.0733 26.376 36.9927 26.376 36.9086V34.0896C26.376 34.0055 26.4094 33.9248 26.4689 33.8654C26.5283 33.8059 26.609 33.7725 26.6931 33.7725C26.7772 33.7725 26.8579 33.8059 26.9174 33.8654C26.9769 33.9248 27.0103 34.0055 27.0103 34.0896V36.9086Z" fill="#1D1D1B" style="fill:#1D1D1B;fill:color(display-p3 0.1137 0.1137 0.1059);fill-opacity:1;"/>
<path d="M33.5045 36.8731C33.5098 36.954 33.484 37.0339 33.4322 37.0963C33.3805 37.1588 33.3068 37.1991 33.2263 37.2088C33.1458 37.2186 33.0646 37.1972 32.9994 37.149C32.9342 37.1008 32.89 37.0294 32.8758 36.9496L32.7638 36.0541H31.6743C31.6307 36.0574 31.587 36.0517 31.5457 36.0374C31.5044 36.023 31.4666 36.0003 31.4345 35.9706C31.4024 35.9409 31.3769 35.9049 31.3594 35.8648C31.3419 35.8248 31.3328 35.7816 31.3328 35.7379C31.3328 35.6942 31.3419 35.6509 31.3594 35.6109C31.3769 35.5709 31.4024 35.5349 31.4345 35.5052C31.4666 35.4755 31.5044 35.4527 31.5457 35.4384C31.587 35.424 31.6307 35.4183 31.6743 35.4216H32.6929L32.6631 35.1884C32.6631 35.1884 32.6631 35.1735 32.6631 35.1661C32.6548 35.1112 32.643 35.057 32.6276 35.0037C32.6106 34.9467 32.5887 34.8911 32.5623 34.8377C32.5069 34.713 32.4171 34.6066 32.3034 34.531C32.1898 34.4553 32.057 34.4136 31.9206 34.4105C31.8666 34.4109 31.8128 34.4171 31.7601 34.4291C31.7109 34.4414 31.6633 34.4596 31.6183 34.4832C31.4929 34.5558 31.3871 34.6581 31.3104 34.781C31.2336 34.904 31.1882 35.0439 31.1781 35.1884L30.9803 36.9496C30.9758 36.9907 30.9632 37.0306 30.9432 37.0669C30.9233 37.1032 30.8964 37.1352 30.8641 37.1611C30.8318 37.187 30.7947 37.2063 30.7549 37.2178C30.7152 37.2294 30.6735 37.233 30.6324 37.2285C30.5912 37.224 30.5513 37.2114 30.5151 37.1914C30.4788 37.1715 30.4468 37.1446 30.4209 37.1123C30.395 37.08 30.3757 37.0429 30.3641 37.0031C30.3525 36.9634 30.3489 36.9217 30.3535 36.8806L30.5512 35.1194C30.5722 34.8702 30.6546 34.63 30.791 34.4204C30.9274 34.2107 31.1136 34.0381 31.3329 33.918C31.422 33.8732 31.5159 33.8388 31.6127 33.8154C31.7137 33.7919 31.817 33.78 31.9206 33.7799C32.1747 33.7813 32.4231 33.8553 32.6366 33.9931C32.8501 34.1309 33.0198 34.3269 33.1258 34.5579C33.169 34.6444 33.2052 34.7342 33.234 34.8265C33.2583 34.9115 33.2764 34.9982 33.2881 35.0858C33.2898 35.0951 33.2898 35.1046 33.2881 35.1138L33.5045 36.8731Z" fill="#1D1D1B" style="fill:#1D1D1B;fill:color(display-p3 0.1137 0.1137 0.1059);fill-opacity:1;"/>
<path d="M34.4727 36.9086C34.4761 36.9521 34.4704 36.9959 34.456 37.0372C34.4417 37.0784 34.4189 37.1163 34.3892 37.1484C34.3595 37.1804 34.3235 37.206 34.2835 37.2235C34.2434 37.241 34.2002 37.25 34.1565 37.25C34.1128 37.25 34.0696 37.241 34.0296 37.2235C33.9895 37.206 33.9535 37.1804 33.9238 37.1484C33.8941 37.1163 33.8714 37.0784 33.857 37.0372C33.8426 36.9959 33.837 36.9521 33.8403 36.9086V34.2967C33.8384 34.2787 33.8384 34.2606 33.8403 34.2426C33.8444 34.2076 33.8525 34.1731 33.8646 34.14L33.8907 34.084C33.9453 33.987 34.0335 33.9133 34.1388 33.8769L34.1817 33.8657H34.2153H34.2899H34.2992C34.364 33.8685 34.4274 33.8852 34.4851 33.9149C34.5427 33.9445 34.5933 33.9863 34.6332 34.0374L36.3122 36.1884V34.0896C36.3122 34.0055 36.3457 33.9248 36.4051 33.8654C36.4646 33.8059 36.5453 33.7725 36.6294 33.7725C36.7135 33.7725 36.7942 33.8059 36.8537 33.8654C36.9131 33.9248 36.9465 34.0055 36.9465 34.0896V36.7015C36.9463 36.7677 36.9312 36.8331 36.9025 36.8928C36.8738 36.9525 36.8321 37.005 36.7805 37.0466C36.7603 37.0636 36.7384 37.0786 36.7152 37.0914C36.7027 37.0987 36.6896 37.105 36.676 37.11L36.6499 37.1212C36.5387 37.1601 36.4166 37.1534 36.3104 37.1026L36.2693 37.0821C36.2472 37.0681 36.2265 37.0518 36.2078 37.0336C36.1932 37.0208 36.1794 37.0071 36.1667 36.9925L36.1555 36.9794L34.4727 34.8209V36.9086Z" fill="#1D1D1B" style="fill:#1D1D1B;fill:color(display-p3 0.1137 0.1137 0.1059);fill-opacity:1;"/>
<path d="M39.4204 36.5914C39.5045 36.5914 39.5852 36.6248 39.6447 36.6843C39.7041 36.7438 39.7376 36.8244 39.7376 36.9086C39.7376 36.9927 39.7041 37.0733 39.6447 37.1328C39.5852 37.1923 39.5045 37.2257 39.4204 37.2257H38.4876C38.1566 37.2257 37.8391 37.0942 37.6051 36.8601C37.371 36.6261 37.2395 36.3086 37.2395 35.9776V35.0243C37.2405 34.6936 37.3723 34.3767 37.6061 34.1428C37.84 33.909 38.1569 33.7772 38.4876 33.7762H39.4204C39.5045 33.7762 39.5852 33.8096 39.6447 33.8691C39.7041 33.9286 39.7376 34.0092 39.7376 34.0933C39.7376 34.1775 39.7041 34.2581 39.6447 34.3176C39.5852 34.3771 39.5045 34.4105 39.4204 34.4105H38.4876C38.3231 34.4124 38.1661 34.4795 38.051 34.5971C37.9927 34.6535 37.9461 34.721 37.9141 34.7956C37.882 34.8703 37.8652 34.9505 37.8645 35.0317V35.9851C37.8655 36.1485 37.9308 36.305 38.0464 36.4206C38.162 36.5362 38.3185 36.6016 38.482 36.6026H39.4148L39.4204 36.5914Z" fill="#1D1D1B" style="fill:#1D1D1B;fill:color(display-p3 0.1137 0.1137 0.1059);fill-opacity:1;"/>
<path d="M41.2543 34.4049C41.0313 34.404 40.8166 34.4896 40.6554 34.6437C40.5789 34.7156 40.5178 34.8023 40.4758 34.8985C40.4338 34.9947 40.4118 35.0984 40.411 35.2034V35.7948C40.4114 35.8996 40.4331 36.0033 40.4748 36.0995C40.5165 36.1957 40.5773 36.2825 40.6535 36.3545C40.8148 36.5086 41.0294 36.5941 41.2524 36.5933C41.4754 36.5941 41.69 36.5086 41.8513 36.3545C41.9277 36.2826 41.9888 36.1959 42.0308 36.0997C42.0728 36.0035 42.0949 35.8998 42.0957 35.7948V35.2034C42.0948 35.0986 42.0729 34.9951 42.0312 34.8989C41.9896 34.8028 41.929 34.716 41.8531 34.6437C41.6909 34.49 41.4759 34.4045 41.2524 34.4049M41.2524 33.7725C41.6387 33.7711 42.0106 33.9195 42.2897 34.1866C42.4276 34.3174 42.5376 34.4747 42.6129 34.6491C42.6883 34.8236 42.7275 35.0115 42.7281 35.2015V35.7929C42.7275 35.983 42.6883 36.1709 42.6129 36.3453C42.5376 36.5198 42.4276 36.6771 42.2897 36.8078C42.0106 37.0749 41.6387 37.2234 41.2524 37.222C40.8661 37.2234 40.4942 37.0749 40.2151 36.8078C40.0778 36.6767 39.9683 36.5193 39.8933 36.3449C39.8183 36.1705 39.7793 35.9828 39.7786 35.7929V35.2015C39.7793 35.0117 39.8183 34.824 39.8933 34.6496C39.9683 34.4752 40.0778 34.3177 40.2151 34.1866C40.4942 33.9195 40.8661 33.7711 41.2524 33.7725Z" fill="#1D1D1B" style="fill:#1D1D1B;fill:color(display-p3 0.1137 0.1137 0.1059);fill-opacity:1;"/>
<path d="M27.9077 34.4067V36.5914H29.1316C29.1839 36.5914 29.2358 36.581 29.2841 36.5609C29.3324 36.5408 29.3763 36.5114 29.4132 36.4743C29.4502 36.4372 29.4794 36.3932 29.4993 36.3448C29.5191 36.2963 29.5292 36.2445 29.529 36.1921C29.5292 36.0926 29.4919 35.9967 29.4245 35.9235L29.4114 35.9123C29.3752 35.8746 29.3317 35.8447 29.2836 35.8242C29.2356 35.8036 29.1839 35.793 29.1316 35.7929H28.71C28.6258 35.7929 28.5452 35.7595 28.4857 35.7C28.4262 35.6405 28.3928 35.5598 28.3928 35.4757C28.3928 35.3916 28.4262 35.3109 28.4857 35.2515C28.5452 35.192 28.6258 35.1586 28.71 35.1586H28.8536C28.9436 35.1506 29.028 35.1117 29.0924 35.0485C29.1279 35.0137 29.1561 34.9722 29.1753 34.9264C29.1945 34.8806 29.2044 34.8314 29.2043 34.7817C29.2043 34.6828 29.165 34.5879 29.0951 34.5179C29.0251 34.4479 28.9302 34.4086 28.8312 34.4086H27.9077V34.4067ZM27.2734 35.4795V34.1026C27.2733 34.0596 27.2822 34.017 27.2996 33.9776C27.3171 33.9369 27.3417 33.8996 27.3723 33.8676C27.4289 33.8135 27.5031 33.7817 27.5813 33.778H28.8219C29.0896 33.778 29.3463 33.8844 29.5356 34.0736C29.7249 34.2629 29.8312 34.5196 29.8312 34.7873C29.8306 34.9773 29.777 35.1634 29.6763 35.3246C29.7438 35.3645 29.8064 35.4121 29.8629 35.4664L29.8834 35.4888C30.0645 35.6796 30.1654 35.9328 30.1651 36.1958C30.1646 36.4688 30.056 36.7305 29.863 36.9235C29.6699 37.1165 29.4083 37.2252 29.1353 37.2257H27.5906C27.5065 37.2257 27.4258 37.1923 27.3663 37.1328C27.3069 37.0733 27.2734 36.9926 27.2734 36.9085V35.4795Z" fill="#1D1D1B" style="fill:#1D1D1B;fill:color(display-p3 0.1137 0.1137 0.1059);fill-opacity:1;"/>
</svg>
