<svg width="56" height="42" viewBox="0 0 56 42" fill="none" xmlns="http://www.w3.org/2000/svg">
<rect x="0.875" y="0.875" width="54.25" height="40.25" rx="6.125" fill="white" style="fill:white;fill-opacity:1;"/>
<rect x="0.875" y="0.875" width="54.25" height="40.25" rx="6.125" stroke="#ECECF0" style="stroke:#ECECF0;stroke:color(display-p3 0.9255 0.9255 0.9412);stroke-opacity:1;" stroke-width="1.75"/>
<path fill-rule="evenodd" clip-rule="evenodd" d="M38.6188 23.8714C38.6188 23.8714 37.4043 24.1237 37.4169 23.2439C37.4299 22.3642 39.6296 22.4168 39.8549 22.4881C39.8549 22.4881 39.9242 23.4863 38.6188 23.8714ZM38.9843 18.3218C37.096 18.3039 36.2129 19.4029 36.2129 19.4029C35.6396 20.0183 36.0072 20.8517 36.5697 20.9119C37.3778 20.9983 37.3695 20.313 38.61 20.009C39.6983 19.7426 39.7453 20.7626 39.7453 20.7626C35.1041 20.6459 35.3258 24.587 36.9056 25.4241C38.4208 26.2267 39.8369 25.2141 39.8369 25.2141C39.8369 25.2141 39.8902 25.7595 40.6397 25.7595C41.4975 25.7595 41.4963 24.8932 41.4963 24.8932L41.4929 21.0571C41.4363 18.2506 38.9843 18.3218 38.9843 18.3218Z" fill="#204256" style="fill:#204256;fill:color(display-p3 0.1255 0.2588 0.3373);fill-opacity:1;"/>
<path fill-rule="evenodd" clip-rule="evenodd" d="M53.9718 24.2107L52.0797 21.3287L53.4704 19.998C53.4704 19.998 54.1122 19.3968 53.5852 18.8009C53.0013 18.1409 52.305 18.7925 52.305 18.7925L50.5576 20.4351V17.1378C50.5576 16.6654 50.1792 16.2827 49.7126 16.2827C49.2454 16.2827 48.867 16.6654 48.867 17.1378V24.8966C48.867 25.3688 49.2454 25.7516 49.7126 25.7516C50.1792 25.7516 50.5576 25.3688 50.5576 24.8966V22.831L50.8773 22.5078L52.5891 25.2227C52.5891 25.2227 53.147 26.1653 53.9689 25.5655C54.5867 25.1144 53.9718 24.2107 53.9718 24.2107Z" fill="#204256" style="fill:#204256;fill:color(display-p3 0.1255 0.2588 0.3373);fill-opacity:1;"/>
<path fill-rule="evenodd" clip-rule="evenodd" d="M47.9347 21.0575C47.9347 18.2549 45.626 17.86 44.0562 18.7491L44.0528 18.7541C43.9347 18.4131 43.6172 18.1668 43.2397 18.1668C42.7627 18.1668 42.3757 18.5583 42.3757 19.0414V24.8848C42.3757 25.3679 42.7627 25.7595 43.2397 25.7595C43.7171 25.7595 44.1041 25.3679 44.1041 24.8848L44.0922 20.9425C44.0922 20.9425 44.3018 20.69 44.6382 20.4484C45.4466 19.8685 46.2172 20.0661 46.2172 21.0571L46.2369 24.899C46.2369 25.3748 46.6175 25.7595 47.0873 25.7595C47.5567 25.7595 47.9373 25.3748 47.9373 24.899L47.9347 21.0575Z" fill="#204256" style="fill:#204256;fill:color(display-p3 0.1255 0.2588 0.3373);fill-opacity:1;"/>
<path fill-rule="evenodd" clip-rule="evenodd" d="M23.0889 25.8718C23.2869 25.5371 23.3213 25.3014 23.3213 25.3014L21.3697 20.1392C21.3697 20.1392 21.0156 19.1405 21.7959 18.8446C22.6227 18.5307 22.9212 19.3298 22.9833 19.4974C23.0453 19.6649 24.2163 22.8202 24.2163 22.8202L25.3436 19.5046C25.3436 19.5046 25.6666 18.4738 26.5697 18.8414C27.3158 19.1454 26.9325 20.1565 26.9325 20.1565C26.9325 20.1565 25.7788 23.6112 24.8116 26.1173C24.2339 27.6148 23.7406 27.7624 23.1769 27.9028C22.4225 28.0907 20.9962 27.9976 20.9962 27.0484C20.9962 26.2997 21.7537 26.2529 22.0954 26.2641C22.1137 26.2645 22.82 26.3264 23.0889 25.8718Z" fill="#1CB9DE" style="fill:#1CB9DE;fill:color(display-p3 0.1098 0.7255 0.8706);fill-opacity:1;"/>
<path fill-rule="evenodd" clip-rule="evenodd" d="M18.5561 17.1943L16.7722 22.1754L14.8273 17.2246C14.8273 17.2246 14.5391 16.2861 13.7282 16.2861C12.7886 16.2861 12.8193 17.0393 12.7982 17.2246C12.777 17.4102 12.7982 24.9664 12.7982 24.9664C12.7982 24.9664 12.7886 25.7597 13.6507 25.7597C14.5315 25.7597 14.4892 24.9594 14.4962 24.9594C14.5033 24.9594 14.4962 20.9703 14.4962 20.9703L15.9266 24.9594C15.9266 24.9594 16.1379 25.7436 16.8003 25.7292C17.4627 25.7153 17.6529 24.9594 17.6529 24.9594L18.8508 20.9775V24.9594C18.8508 24.9594 18.8508 25.7597 19.7174 25.7597C20.5558 25.7597 20.5558 24.9594 20.5558 24.9594L20.557 17.2318C20.557 17.2318 20.557 16.2861 19.647 16.2907C18.8923 16.2943 18.6054 17.0264 18.5561 17.1943C18.5504 17.2139 18.5478 17.2246 18.5478 17.2246L18.5561 17.1943Z" fill="#1CB9DE" style="fill:#1CB9DE;fill:color(display-p3 0.1098 0.7255 0.8706);fill-opacity:1;"/>
<path fill-rule="evenodd" clip-rule="evenodd" d="M54.25 28.8109L28.1378 28.8089L28.1454 28.8214C25.9602 31.4125 22.7146 33.0604 19.0842 33.0604C12.5022 33.0604 7.16656 27.6606 7.16656 21.0001C7.16656 14.3394 12.5022 8.94003 19.0842 8.94003C22.7303 8.94003 25.9913 10.5974 28.1769 13.2075H30.5699C28.0866 9.46634 23.8727 7 19.0842 7C11.4441 7 5.25 13.2681 5.25 21.0001C5.25 28.732 11.4441 35 19.0842 35C23.0924 35 26.6944 33.2685 29.2195 30.5114L53.1159 30.4873L54.25 28.8109Z" fill="#1CB9DE" style="fill:#1CB9DE;fill:color(display-p3 0.1098 0.7255 0.8706);fill-opacity:1;"/>
<path fill-rule="evenodd" clip-rule="evenodd" d="M32.3223 24.0689H29.9175V21.7493H32.3223C32.904 21.7796 33.4687 22.0791 33.4687 22.9092C33.4687 23.7617 32.9552 24.0689 32.3223 24.0689ZM29.9175 18.1172H32.1591C32.6082 18.129 33.0793 18.3713 33.0793 19.0486C33.0793 19.7545 32.6673 19.98 32.1591 19.98H29.9175V18.1172ZM34.2171 20.6829C34.2627 20.6192 34.838 20.1476 34.7925 18.8936C34.7009 16.3548 32.5221 16.3838 32.0398 16.369C31.2629 16.3453 30.7952 16.3548 29.3693 16.369C28.1651 16.381 28.1739 17.4884 28.1739 17.4884V25.7595H32.2326C34.4045 25.7595 35.2125 24.5496 35.2125 22.8579C35.2125 21.156 34.2171 20.6829 34.2171 20.6829Z" fill="#204256" style="fill:#204256;fill:color(display-p3 0.1255 0.2588 0.3373);fill-opacity:1;"/>
</svg>
