<svg width="56" height="42" viewBox="0 0 56 42" fill="none" xmlns="http://www.w3.org/2000/svg">
<rect width="56" height="42" rx="7" fill="#0040FF" style="fill:#0040FF;fill:color(display-p3 0.0000 0.2510 1.0000);fill-opacity:1;"/>
<path fill-rule="evenodd" clip-rule="evenodd" d="M17.6234 15.1271C17.4121 15.2372 17.2536 15.3635 17.1479 15.5058C17.0493 15.6482 17 15.8101 17 15.9913C17 16.2243 17.0916 16.4316 17.2747 16.6128C17.4579 16.7876 17.7115 16.875 18.0355 16.875H37.9645C38.2956 16.875 38.5491 16.7876 38.7253 16.6128C38.9084 16.4316 39 16.2243 39 15.9913C39 15.8101 38.9472 15.6482 38.8415 15.5058C38.7429 15.3635 38.5914 15.2372 38.3872 15.1271L29.3632 10.3496C28.9123 10.1165 28.4579 10 28 10C27.5421 10 27.0913 10.1165 26.6474 10.3496L17.6234 15.1271ZM22.6257 14.8125H33.3848L28.4088 12.1781C28.2223 12.0829 28.0927 12.0625 28 12.0625C27.9075 12.0625 27.7841 12.0827 27.6088 12.1744L22.6257 14.8125Z" fill="white" style="fill:white;fill-opacity:1;"/>
<path d="M20.7812 18.9375H22.8438V27.875H20.7812V18.9375Z" fill="white" style="fill:white;fill-opacity:1;"/>
<path d="M19.75 19.7625C19.75 19.3737 19.75 19.1791 19.8708 19.0584C19.9916 18.9375 20.1861 18.9375 20.575 18.9375H23.05C23.4388 18.9375 23.6334 18.9375 23.7541 19.0584C23.875 19.1791 23.875 19.3737 23.875 19.7625V20.175C23.875 20.5638 23.875 20.7584 23.7541 20.8791C23.6334 21 23.4388 21 23.05 21H20.575C20.1861 21 19.9916 21 19.8708 20.8791C19.75 20.7584 19.75 20.5638 19.75 20.175V19.7625Z" fill="white" style="fill:white;fill-opacity:1;"/>
<path d="M19.75 26.6375C19.75 26.2487 19.75 26.0541 19.8708 25.9334C19.9916 25.8125 20.1861 25.8125 20.575 25.8125H23.05C23.4388 25.8125 23.6334 25.8125 23.7541 25.9334C23.875 26.0541 23.875 26.2487 23.875 26.6375V27.05C23.875 27.4388 23.875 27.6334 23.7541 27.7541C23.6334 27.875 23.4388 27.875 23.05 27.875H20.575C20.1861 27.875 19.9916 27.875 19.8708 27.7541C19.75 27.6334 19.75 27.4388 19.75 27.05V26.6375Z" fill="white" style="fill:white;fill-opacity:1;"/>
<path d="M26.9688 18.9375H29.0312V27.875H26.9688V18.9375Z" fill="white" style="fill:white;fill-opacity:1;"/>
<path d="M25.9375 19.7625C25.9375 19.3737 25.9375 19.1791 26.0584 19.0584C26.1791 18.9375 26.3737 18.9375 26.7625 18.9375H29.2375C29.6263 18.9375 29.8209 18.9375 29.9416 19.0584C30.0625 19.1791 30.0625 19.3737 30.0625 19.7625V20.175C30.0625 20.5638 30.0625 20.7584 29.9416 20.8791C29.8209 21 29.6263 21 29.2375 21H26.7625C26.3737 21 26.1791 21 26.0584 20.8791C25.9375 20.7584 25.9375 20.5638 25.9375 20.175V19.7625Z" fill="white" style="fill:white;fill-opacity:1;"/>
<path d="M25.9375 26.6375C25.9375 26.2487 25.9375 26.0541 26.0584 25.9334C26.1791 25.8125 26.3737 25.8125 26.7625 25.8125H29.2375C29.6263 25.8125 29.8209 25.8125 29.9416 25.9334C30.0625 26.0541 30.0625 26.2487 30.0625 26.6375V27.05C30.0625 27.4388 30.0625 27.6334 29.9416 27.7541C29.8209 27.875 29.6263 27.875 29.2375 27.875H26.7625C26.3737 27.875 26.1791 27.875 26.0584 27.7541C25.9375 27.6334 25.9375 27.4388 25.9375 27.05V26.6375Z" fill="white" style="fill:white;fill-opacity:1;"/>
<path d="M33.1562 18.9375H35.2188V27.875H33.1562V18.9375Z" fill="white" style="fill:white;fill-opacity:1;"/>
<path d="M32.125 19.7625C32.125 19.3737 32.125 19.1791 32.2459 19.0584C32.3666 18.9375 32.5612 18.9375 32.95 18.9375H35.425C35.8138 18.9375 36.0084 18.9375 36.1291 19.0584C36.25 19.1791 36.25 19.3737 36.25 19.7625V20.175C36.25 20.5638 36.25 20.7584 36.1291 20.8791C36.0084 21 35.8138 21 35.425 21H32.95C32.5612 21 32.3666 21 32.2459 20.8791C32.125 20.7584 32.125 20.5638 32.125 20.175V19.7625Z" fill="white" style="fill:white;fill-opacity:1;"/>
<path d="M32.125 26.6375C32.125 26.2487 32.125 26.0541 32.2459 25.9334C32.3666 25.8125 32.5612 25.8125 32.95 25.8125H35.425C35.8138 25.8125 36.0084 25.8125 36.1291 25.9334C36.25 26.0541 36.25 26.2487 36.25 26.6375V27.05C36.25 27.4388 36.25 27.6334 36.1291 27.7541C36.0084 27.875 35.8138 27.875 35.425 27.875H32.95C32.5612 27.875 32.3666 27.875 32.2459 27.7541C32.125 27.6334 32.125 27.4388 32.125 27.05V26.6375Z" fill="white" style="fill:white;fill-opacity:1;"/>
<path d="M17 30.9688C17 30.3992 17.4617 29.9375 18.0312 29.9375H37.9688C38.5383 29.9375 39 30.3992 39 30.9688C39 31.5383 38.5383 32 37.9688 32H18.0312C17.4617 32 17 31.5383 17 30.9688Z" fill="white" style="fill:white;fill-opacity:1;"/>
</svg>
