<svg width="56" height="42" viewBox="0 0 56 42" fill="none" xmlns="http://www.w3.org/2000/svg">
<rect width="56" height="42" rx="7" fill="#FF4785" style="fill:#FF4785;fill:color(display-p3 1.0000 0.2784 0.5216);fill-opacity:1;"/>
<g clip-path="url(#clip0_5268_734)">
<path fill-rule="evenodd" clip-rule="evenodd" d="M14.0845 14.2904L16.4229 17.9873C17.0092 17.5968 17.6692 17.4104 18.3211 17.4104C19.4698 17.4104 20.5959 17.9879 21.266 19.0485C21.7742 19.852 21.9474 20.8112 21.7516 21.7483C21.5809 22.5683 21.1482 23.2851 20.5184 23.8015L26.0316 19.7381C25.8622 18.651 25.4742 17.6018 24.8721 16.6502C23.7398 14.8578 21.9934 13.6241 19.9554 13.1782C19.4087 13.0585 18.8577 12.9999 18.311 12.9999C16.8215 12.9999 15.3629 13.4383 14.0845 14.2904Z" fill="white" style="fill:white;fill-opacity:1;"/>
<path fill-rule="evenodd" clip-rule="evenodd" d="M35.4931 18.1883L35.767 17.9868C35.6713 18.0497 35.5806 18.1172 35.4931 18.1883ZM29.9709 22.2595C30.1354 23.3301 30.5145 24.3825 31.1254 25.3505C32.618 27.7104 35.1258 28.9957 37.6834 28.9957C39.1363 28.9957 40.6062 28.5801 41.9131 27.7122L39.5753 24.0129C38.7906 24.5362 37.8565 24.7106 36.9402 24.5116C36.0258 24.3114 35.2417 23.7578 34.7322 22.9529C33.7447 21.3892 34.0969 19.3251 35.4931 18.1883L29.9709 22.2595Z" fill="white" style="fill:white;fill-opacity:1;"/>
<path fill-rule="evenodd" clip-rule="evenodd" d="M33.3436 14.3491L32.8901 14.6829L26.0317 19.7382L20.5186 23.8016C20.4272 23.8772 20.3315 23.9477 20.232 24.0138C20.0512 24.1335 19.8629 24.2311 19.6709 24.3136C18.2708 24.9113 16.6296 24.5101 15.6452 23.3047C15.5552 23.1932 15.4683 23.0773 15.3895 22.9532L11.7827 25.3509C12.9157 27.1433 14.6621 28.3764 16.6995 28.8223C16.8355 28.8519 16.9716 28.8777 17.1076 28.9004C17.2399 28.9218 17.3734 28.9394 17.5056 28.9545C17.5088 28.9552 17.5113 28.9552 17.5145 28.9558C17.7865 28.9847 18.058 28.9999 18.3294 28.9999C19.8264 28.9999 21.3077 28.5496 22.6516 27.654C22.6554 27.6515 22.6592 27.649 22.663 27.6458L23.1057 27.3202L29.9711 22.2598L35.7664 17.9874C35.8546 17.9288 35.9446 17.8766 36.036 17.8268C36.0624 17.8123 36.0895 17.7985 36.1159 17.7852C36.1871 17.7487 36.2608 17.7147 36.3338 17.6832C36.3571 17.6731 36.3805 17.6624 36.4038 17.6536C36.5008 17.6146 36.599 17.5799 36.6985 17.5503C36.7073 17.5471 36.7167 17.5453 36.7255 17.5427C36.8175 17.5163 36.9094 17.4949 37.0033 17.476C37.026 17.4716 37.048 17.4672 37.0713 17.4634C37.1626 17.447 37.2558 17.4338 37.349 17.4256C37.3598 17.4244 37.3711 17.4224 37.3818 17.4212C37.475 17.4136 37.5695 17.4093 37.6633 17.4093C37.6728 17.4093 37.6835 17.4099 37.6935 17.4099C37.7616 17.4105 37.8296 17.4168 37.897 17.4212C37.9467 17.425 37.9971 17.4256 38.0469 17.4313C38.1653 17.4445 38.2837 17.4634 38.4014 17.4892C38.5154 17.5138 38.6275 17.5447 38.7378 17.5799C38.8417 17.6139 38.9431 17.6536 39.0426 17.6964C39.074 17.7103 39.1049 17.7266 39.1358 17.7418C39.2026 17.7732 39.2693 17.8054 39.3335 17.8407C39.3694 17.8608 39.4034 17.8815 39.4381 17.903C39.4966 17.9376 39.5539 17.9735 39.6106 18.012C39.6453 18.0359 39.6787 18.0605 39.7127 18.085C39.7681 18.1259 39.821 18.1681 39.8732 18.211C39.9054 18.2368 39.9356 18.2638 39.9671 18.2909C40.02 18.3394 40.0717 18.3892 40.1227 18.4402C40.1485 18.4666 40.1755 18.4919 40.1995 18.5196C40.2568 18.5812 40.3116 18.6455 40.3645 18.7117C40.3809 18.7311 40.3979 18.75 40.4136 18.7696C40.4823 18.859 40.5478 18.951 40.6088 19.0479L44.2156 16.6509C43.3661 15.307 42.1713 14.276 40.7669 13.6576C40.2996 13.451 39.8084 13.2898 39.2989 13.1789C38.7579 13.0612 38.2125 13.002 37.6703 13.002C36.1707 13.002 34.6901 13.4523 33.3436 14.3491Z" fill="white" style="fill:white;fill-opacity:1;"/>
<path fill-rule="evenodd" clip-rule="evenodd" d="M11.7828 25.3502L15.3896 22.9532C15.1925 22.6421 15.0495 22.3108 14.9563 21.9707C14.8631 21.6306 14.8216 21.2818 14.8285 20.936C14.8499 19.7841 15.411 18.6606 16.4231 17.9873L14.0847 14.2898C10.476 16.6893 9.44378 21.6502 11.7828 25.3502Z" fill="white" style="fill:white;fill-opacity:1;"/>
<path fill-rule="evenodd" clip-rule="evenodd" d="M40.6087 19.0479C41.1175 19.8521 41.2901 20.8113 41.0949 21.749C40.8996 22.6874 40.3599 23.491 39.5752 24.0131L41.9129 27.7125C43.6619 26.5493 44.8642 24.7588 45.2987 22.6698C45.3604 22.3738 45.4033 22.0765 45.4322 21.7799C45.453 21.5727 45.4656 21.3655 45.47 21.1583C45.4706 21.1387 45.4719 21.1193 45.4719 21.0997C45.494 19.5328 45.0657 17.9942 44.2155 16.6509L40.6087 19.0479Z" fill="white" style="fill:white;fill-opacity:1;"/>
<path fill-rule="evenodd" clip-rule="evenodd" d="M14.0845 14.2904L16.4229 17.9873C17.0092 17.5968 17.6692 17.4104 18.3211 17.4104C19.4698 17.4104 20.5959 17.9879 21.266 19.0485C21.7742 19.852 21.9474 20.8112 21.7516 21.7483C21.5809 22.5683 21.1482 23.2851 20.5184 23.8015L26.0316 19.7381C25.8622 18.651 25.4742 17.6018 24.8721 16.6502C23.7398 14.8578 21.9934 13.6241 19.9554 13.1782C19.4087 13.0585 18.8577 12.9999 18.311 12.9999C16.8215 12.9999 15.3629 13.4383 14.0845 14.2904Z" fill="white" style="fill:white;fill-opacity:1;"/>
<path fill-rule="evenodd" clip-rule="evenodd" d="M33.3436 14.3491L32.8901 14.6829L26.0317 19.7382L20.5186 23.8016C20.4272 23.8772 20.3315 23.9477 20.232 24.0138C20.0512 24.1335 19.8629 24.2311 19.6709 24.3136C18.2708 24.9113 16.6296 24.5101 15.6452 23.3047C15.5552 23.1932 15.4683 23.0773 15.3895 22.9532L11.7827 25.3509C12.9157 27.1433 14.6621 28.3764 16.6995 28.8223C16.8355 28.8519 16.9716 28.8777 17.1076 28.9004C17.2399 28.9218 17.3734 28.9394 17.5056 28.9545C17.5088 28.9552 17.5113 28.9552 17.5145 28.9558C17.7865 28.9847 18.058 28.9999 18.3294 28.9999C19.8264 28.9999 21.3077 28.5496 22.6516 27.654C22.6554 27.6515 22.6592 27.649 22.663 27.6458L23.1057 27.3202L29.9711 22.2598L35.7664 17.9874C35.8546 17.9288 35.9446 17.8766 36.036 17.8268C36.0624 17.8123 36.0895 17.7985 36.1159 17.7852C36.1871 17.7487 36.2608 17.7147 36.3338 17.6832C36.3571 17.6731 36.3805 17.6624 36.4038 17.6536C36.5008 17.6146 36.599 17.5799 36.6985 17.5503C36.7073 17.5471 36.7167 17.5453 36.7255 17.5427C36.8175 17.5163 36.9094 17.4949 37.0033 17.476C37.026 17.4716 37.048 17.4672 37.0713 17.4634C37.1626 17.447 37.2558 17.4338 37.349 17.4256C37.3598 17.4244 37.3711 17.4224 37.3818 17.4212C37.475 17.4136 37.5695 17.4093 37.6633 17.4093C37.6728 17.4093 37.6835 17.4099 37.6935 17.4099C37.7616 17.4105 37.8296 17.4168 37.897 17.4212C37.9467 17.425 37.9971 17.4256 38.0469 17.4313C38.1653 17.4445 38.2837 17.4634 38.4014 17.4892C38.5154 17.5138 38.6275 17.5447 38.7378 17.5799C38.8417 17.6139 38.9431 17.6536 39.0426 17.6964C39.074 17.7103 39.1049 17.7266 39.1358 17.7418C39.2026 17.7732 39.2693 17.8054 39.3335 17.8407C39.3694 17.8608 39.4034 17.8815 39.4381 17.903C39.4966 17.9376 39.5539 17.9735 39.6106 18.012C39.6453 18.0359 39.6787 18.0605 39.7127 18.085C39.7681 18.1259 39.821 18.1681 39.8732 18.211C39.9054 18.2368 39.9356 18.2638 39.9671 18.2909C40.02 18.3394 40.0717 18.3892 40.1227 18.4402C40.1485 18.4666 40.1755 18.4919 40.1995 18.5196C40.2568 18.5812 40.3116 18.6455 40.3645 18.7117C40.3809 18.7311 40.3979 18.75 40.4136 18.7696C40.4823 18.859 40.5478 18.951 40.6088 19.0479L44.2156 16.6509C43.3661 15.307 42.1713 14.276 40.7669 13.6576C40.2996 13.451 39.8084 13.2898 39.2989 13.1789C38.7579 13.0612 38.2125 13.002 37.6703 13.002C36.1707 13.002 34.6901 13.4523 33.3436 14.3491Z" fill="white" style="fill:white;fill-opacity:1;"/>
<path fill-rule="evenodd" clip-rule="evenodd" d="M35.4931 18.1883L35.767 17.9868C35.6713 18.0497 35.5806 18.1172 35.4931 18.1883ZM29.9709 22.2595C30.1354 23.3301 30.5145 24.3825 31.1254 25.3505C32.618 27.7104 35.1258 28.9957 37.6834 28.9957C39.1363 28.9957 40.6062 28.5801 41.9131 27.7122L39.5753 24.0129C38.7906 24.5362 37.8565 24.7106 36.9402 24.5116C36.0258 24.3114 35.2417 23.7578 34.7322 22.9529C33.7447 21.3892 34.0969 19.3251 35.4931 18.1883L29.9709 22.2595Z" fill="white" style="fill:white;fill-opacity:1;"/>
<path fill-rule="evenodd" clip-rule="evenodd" d="M40.6087 19.0479C41.1175 19.8521 41.2901 20.8113 41.0949 21.749C40.8996 22.6874 40.3599 23.491 39.5752 24.0131L41.9129 27.7125C43.6619 26.5493 44.8642 24.7588 45.2987 22.6698C45.3604 22.3738 45.4033 22.0765 45.4322 21.7799C45.453 21.5727 45.4656 21.3655 45.47 21.1583C45.4706 21.1387 45.4719 21.1193 45.4719 21.0997C45.494 19.5328 45.0657 17.9942 44.2155 16.6509L40.6087 19.0479Z" fill="white" style="fill:white;fill-opacity:1;"/>
</g>
<defs>
<clipPath id="clip0_5268_734">
<rect width="34.9427" height="16" fill="white" style="fill:white;fill-opacity:1;" transform="translate(10.53 13)"/>
</clipPath>
</defs>
</svg>
