<svg width="56" height="42" viewBox="0 0 56 42" fill="none" xmlns="http://www.w3.org/2000/svg">
<path d="M7 0.875H49C52.3827 0.875 55.125 3.61726 55.125 7V35C55.125 38.3827 52.3827 41.125 49 41.125H7C3.61726 41.125 0.875 38.3827 0.875 35V7L0.882812 6.68457C1.04697 3.44841 3.72304 0.875 7 0.875Z" fill="white" style="fill:white;fill-opacity:1;"/>
<path d="M7 0.875H49C52.3827 0.875 55.125 3.61726 55.125 7V35C55.125 38.3827 52.3827 41.125 49 41.125H7C3.61726 41.125 0.875 38.3827 0.875 35V7L0.882812 6.68457C1.04697 3.44841 3.72304 0.875 7 0.875Z" stroke="#ECECF0" style="stroke:#ECECF0;stroke:color(display-p3 0.9255 0.9255 0.9412);stroke-opacity:1;" stroke-width="1.75"/>
<path d="M34.9581 15.8358C34.939 15.9604 34.9159 16.087 34.891 16.2194C34.0279 20.6384 31.0838 22.1651 27.3207 22.1651H24.6087L24.484 22.9515L23.5039 29.1715L23.1299 31.5H27.7983L27.9479 30.6369L28.7592 25.6635L29.4363 25.6674H29.9426C33.2358 25.6674 35.8116 24.3305 36.5654 20.4639C36.8819 18.8489 36.7189 17.5006 35.8864 16.5512C35.6217 16.2581 35.3059 16.0157 34.9543 15.8358H34.9581Z" fill="#85D0FA" style="fill:#85D0FA;fill:color(display-p3 0.5216 0.8157 0.9804);fill-opacity:1;"/>
<path d="M25.6041 15.8589C25.6335 15.6661 25.7313 15.4903 25.8795 15.3635C26.0277 15.2368 26.2165 15.1675 26.4116 15.1684H31.5307C32.1368 15.1684 32.7006 15.2067 33.2185 15.2911C33.5011 15.3376 33.7809 15.3997 34.0567 15.4772C34.3688 15.5651 34.6709 15.6853 34.9581 15.8358C35.2151 14.2017 34.9562 13.0912 34.072 12.0843C33.0977 10.9757 31.3408 10.5 29.091 10.5H21.7758L18.918 28.5214L18.8125 29.1716H23.5039L24.5166 22.7521L25.6041 15.8589Z" fill="#003087" style="fill:#003087;fill:color(display-p3 0.0000 0.1882 0.5294);fill-opacity:1;"/>
<path fill-rule="evenodd" clip-rule="evenodd" d="M33.6481 15.3716C33.8506 15.4174 34.051 15.4724 34.2484 15.5365C34.5035 15.6209 34.7394 15.7207 34.9581 15.8358C34.9055 16.1672 34.8383 16.4961 34.7567 16.8216C33.7517 20.7765 30.9073 22.1651 27.3207 22.1651H24.6086L25.606 15.8569L25.7153 15.1664H31.5307C32.2422 15.163 32.9523 15.2318 33.65 15.3716H33.6481Z" fill="#4195F7" style="fill:#4195F7;fill:color(display-p3 0.2549 0.5843 0.9686);fill-opacity:1;"/>
</svg>
