<svg width="56" height="42" viewBox="0 0 56 42" fill="none" xmlns="http://www.w3.org/2000/svg">
<rect width="56" height="42" rx="7" fill="#2D03F5" style="fill:#2D03F5;fill:color(display-p3 0.1765 0.0118 0.9608);fill-opacity:1;"/>
<path d="M22.4458 17.1942C22.7615 17.078 23.0148 16.9897 23.2598 16.8676C23.7336 14.6818 25.7022 12.9924 27.9807 12.9491C30.423 12.9924 32.3925 14.6842 32.8644 16.8676C33.5814 17.0756 34.1806 17.3724 34.6551 17.8473C34.6666 17.382 34.6492 16.9657 34.6551 16.5411C34.3001 13.1705 31.4845 10.5 27.9807 10.5C24.5172 10.5 21.6399 13.339 21.4691 16.8676C21.4697 17.1943 21.4634 17.5136 21.4691 17.8473C21.7713 17.5938 22.1101 17.366 22.4458 17.1942Z" fill="white" style="fill:white;fill-opacity:1;"/>
<path d="M31.907 18.2749H23.9302C23.542 18.2749 23.1459 18.3636 22.7907 18.6014C22.3441 18.7186 22.0214 18.9265 21.814 19.2545C21.2699 19.7683 21.0176 20.6358 21 21.7036V28.0713C21.0176 29.1399 21.2699 30.0066 21.814 30.5204C22.0214 30.8492 22.3441 31.0571 22.7907 31.1735C23.1459 31.4097 23.542 31.5 23.9302 31.5H31.907C33.9234 31.4816 34.9673 30.3543 35 28.0713V21.7036C34.9673 19.4158 33.9234 18.2925 31.907 18.2749Z" fill="white" style="fill:white;fill-opacity:1;"/>
</svg>
