<svg width="56" height="42" viewBox="0 0 56 42" fill="none" xmlns="http://www.w3.org/2000/svg">
<rect width="56" height="42" rx="7" fill="#D13239" style="fill:#D13239;fill:color(display-p3 0.8196 0.1961 0.2235);fill-opacity:1;"/>
<path fill-rule="evenodd" clip-rule="evenodd" d="M20.6435 13.4583C20.4071 13.2204 20.1254 13.0363 19.8165 12.9179C19.46 12.7796 19.0916 12.6768 18.7164 12.6108C18.301 12.5354 17.8811 12.4894 17.4596 12.4732C17.1575 12.4597 16.9637 12.4597 16.9637 12.4597H9.75585L7 29.75H9.57331L10.5894 23.3455L15.5809 23.3706C15.5809 23.3706 17.5258 23.4529 18.9038 22.6926C20.2817 21.934 20.6484 20.2086 20.6484 20.2086C20.6484 20.2086 20.8002 19.5675 20.9278 18.7888C21.075 17.8494 21.2081 16.9078 21.3268 15.9641C21.3268 15.9641 21.3624 15.7879 21.3624 15.511C21.3751 14.9851 21.2583 14.4646 21.0232 13.9988C20.9207 13.8017 20.793 13.6199 20.6435 13.4583ZM18.6615 16.5096C18.6615 16.5415 18.4321 17.9278 18.13 19.5725C18.0153 20.2002 17.5485 20.5393 17.0186 20.6584C16.1366 20.8531 15.1868 20.8162 15.1868 20.8162L11.0191 20.8044L11.9366 15.0595L15.7134 15.0712C15.7134 15.0712 15.967 15.0662 16.324 15.0712C16.7278 15.0779 17.2658 15.0964 17.7068 15.1602C18.088 15.2105 18.3901 15.2911 18.487 15.417C18.6025 15.5823 18.6698 15.7786 18.6808 15.9826C18.7035 16.2578 18.6615 16.4911 18.6615 16.5096Z" fill="white" style="fill:white;fill-opacity:1;"/>
<path fill-rule="evenodd" clip-rule="evenodd" d="M23.1377 18.5185L25.7433 18.5253L25.9 17.4763C25.9 17.4763 26.1778 15.5798 26.8014 15.2156C27.0001 15.0981 27.3199 14.9907 27.6898 14.9219C28.3715 14.796 29.2358 14.7826 29.9433 14.8077C31.0256 14.8463 31.4359 14.8581 32.5344 14.9907C33.6345 15.1216 33.3566 16.2276 33.3566 16.2276L33.1385 17.8774C33.1385 17.8774 33.0416 18.6192 32.788 19.0774C32.5651 19.4853 31.948 19.7622 31.5926 19.8814C30.7348 20.17 27.7965 20.9471 27.7965 20.9471L25.4897 21.6386C25.4897 21.6386 24.0682 22.0649 23.2766 22.9762C22.6703 23.684 22.2502 24.5425 22.057 25.4686C21.9488 26.0073 21.3382 29.7433 21.3382 29.7433L33.7976 29.75L34.2144 27.1637L24.3605 27.1754L24.535 26.1214C24.535 26.1214 24.6497 25.0339 25.0729 24.6781C25.2054 24.5639 25.2716 24.4129 26.0583 24.1242C26.5284 23.948 28.1357 23.5032 28.1357 23.5032L31.8511 22.4475C31.8511 22.4475 33.8816 21.9088 34.6796 20.7524C35.4776 19.6044 35.7862 17.4008 35.7862 17.4008C35.7862 17.4008 36.0026 15.2609 35.8346 14.5879C35.6715 13.9165 35.0592 13.1126 34.3162 12.7685C33.5731 12.4228 32.8009 12.2214 30.5588 12.2533C28.3182 12.2852 27.2052 12.3909 26.0696 12.8306C24.934 13.2637 24.2765 14.0558 23.8582 15.1719C23.4058 16.2326 23.1393 18.5185 23.1393 18.5185H23.1377ZM46.5947 23.327L48.3409 12.4547H45.2475L35.6165 23.2011L35.1804 25.9267H43.6046L42.9875 29.7433L45.5738 29.75L46.1844 25.9267L48.5703 25.9318L49 23.327H46.5947ZM44.0214 23.3337L38.5775 23.327L45.2055 15.9893L44.0214 23.3337Z" fill="#D4D4D4" style="fill:#D4D4D4;fill:color(display-p3 0.8297 0.8297 0.8297);fill-opacity:1;"/>
</svg>
