<svg width="56" height="42" viewBox="0 0 56 42" fill="none" xmlns="http://www.w3.org/2000/svg">
<g clip-path="url(#clip0_4559_163)">
<rect width="56" height="42" rx="7" fill="#F94C43" style="fill:#F94C43;fill:color(display-p3 0.9765 0.2980 0.2627);fill-opacity:1;"/>
<rect width="56" height="42" fill="#FF3D00" style="fill:#FF3D00;fill:color(display-p3 1.0000 0.2392 0.0000);fill-opacity:1;"/>
<path d="M35.5811 31.863C35.7707 32.1076 35.7724 32.4517 35.5176 32.6511C35.4799 32.681 35.3435 32.7622 35.3086 32.7624H29.6534L33.0977 29.6423V29.6413L35.5811 31.863ZM20.6358 9.27709C22.955 9.20064 25.2916 9.2627 27.6172 9.24487L27.7471 9.30737C28.3194 9.85969 28.9236 10.3783 29.5137 10.9109C31.0512 12.2977 32.5823 13.6918 34.1124 15.0867L38.7051 19.2683C39.3497 20.0016 39.5524 21.063 39.1846 21.9734C38.8366 22.8347 37.8316 23.5297 37.1504 24.154C34.0105 27.0298 30.8466 29.879 27.6983 32.7458L20.6475 32.7478C20.2794 32.6074 20.1418 32.1842 20.4083 31.8708L31.9932 21.3855C32.1834 21.2345 32.2537 20.9959 32.1211 20.78L20.3663 10.0818C20.1581 9.78109 20.3109 9.40831 20.6358 9.27709ZM22.9239 14.1892C23.243 14.4943 23.5769 14.7843 23.9043 15.0798C24.9194 15.9954 25.92 16.9322 26.9473 17.8337L26.9913 17.9109L23.9004 20.7302C23.6646 21.0965 23.8956 21.2723 24.1417 21.5124C24.9894 22.3406 25.9348 23.0878 26.8018 23.8982C26.8409 23.9351 26.9982 24.0739 26.9913 24.1169L22.8809 27.8269L17.3643 22.8337C16.4383 21.8577 16.3811 20.3441 17.252 19.3152L22.8604 14.1892H22.9239ZM35.2452 9.24291C35.6609 9.30106 35.8644 9.78244 35.6075 10.113L33.0977 12.3943L29.6856 9.24291H35.2452Z" fill="white" style="fill:white;fill-opacity:1;"/>
</g>
<defs>
<clipPath id="clip0_4559_163">
<rect width="56" height="42" rx="7" fill="white" style="fill:white;fill-opacity:1;"/>
</clipPath>
</defs>
</svg>
