<svg width="56" height="42" viewBox="0 0 56 42" fill="none" xmlns="http://www.w3.org/2000/svg">
<rect x="0.875" y="0.875" width="54.25" height="40.25" rx="6.125" fill="white" style="fill:white;fill-opacity:1;"/>
<rect x="0.875" y="0.875" width="54.25" height="40.25" rx="6.125" stroke="#ECECF0" style="stroke:#ECECF0;stroke:color(display-p3 0.9255 0.9255 0.9412);stroke-opacity:1;" stroke-width="1.75"/>
<path fill-rule="evenodd" clip-rule="evenodd" d="M21.9634 33.6367C27.588 36.3269 34.5299 34.9955 38.7235 29.9987C43.6943 24.0759 42.9222 15.2464 36.9992 10.2774L33.0616 14.9692C37.6889 18.8512 38.2921 25.7493 34.4089 30.3764C31.3122 34.0655 26.2138 35.2976 21.9634 33.6367Z" fill="url(#paint0_linear_4559_390)" style=""/>
<path fill-rule="evenodd" clip-rule="evenodd" d="M21.9634 33.6367C27.588 36.3268 34.5299 34.9955 38.7235 29.9986C39.2288 29.397 39.6828 28.7543 40.0809 28.077C40.7433 23.9616 39.2868 19.6115 35.8609 16.7374C35.0122 16.0244 34.0707 15.4298 33.0621 14.9698C37.6891 18.8518 38.2918 25.7494 34.4087 30.3762C31.3123 34.0658 26.2142 35.2976 21.9634 33.6367Z" fill="url(#paint1_linear_4559_390)" style=""/>
<path fill-rule="evenodd" clip-rule="evenodd" d="M34.0367 8.36309C28.4121 5.67324 21.4703 7.00455 17.2765 12.0014C12.3058 17.9242 13.0778 26.7537 19.0009 31.7227L22.9386 27.0309C18.3112 23.1489 17.7079 16.2508 21.5913 11.6237C24.6877 7.93408 29.7859 6.70229 34.0365 8.36325" fill="url(#paint2_linear_4559_390)" style=""/>
<path fill-rule="evenodd" clip-rule="evenodd" d="M34.0366 8.36309C28.412 5.67323 21.4702 7.00455 17.2765 12.0014C16.7712 12.603 16.3172 13.2458 15.919 13.9231C15.2567 18.0385 16.7132 22.3884 20.1391 25.2626C20.9878 25.9757 21.9293 26.5703 22.9379 27.0303C18.3111 23.1483 17.7082 16.2506 21.5913 11.6237C24.6877 7.93408 29.7858 6.70229 34.0364 8.36325" fill="url(#paint3_linear_4559_390)" style=""/>
<defs>
<linearGradient id="paint0_linear_4559_390" x1="38.1561" y1="25.0212" x2="32.2075" y2="13.1714" gradientUnits="userSpaceOnUse">
<stop stop-color="#EF2131" style="stop-color:#EF2131;stop-color:color(display-p3 0.9373 0.1294 0.1922);stop-opacity:1;"/>
<stop offset="1" stop-color="#FECF2C" style="stop-color:#FECF2C;stop-color:color(display-p3 0.9961 0.8118 0.1725);stop-opacity:1;"/>
</linearGradient>
<linearGradient id="paint1_linear_4559_390" x1="32.7115" y1="14.9696" x2="22.2837" y2="33.0218" gradientUnits="userSpaceOnUse">
<stop stop-color="#FBC52C" style="stop-color:#FBC52C;stop-color:color(display-p3 0.9843 0.7725 0.1725);stop-opacity:1;"/>
<stop offset="0.264" stop-color="#F87130" style="stop-color:#F87130;stop-color:color(display-p3 0.9725 0.4431 0.1882);stop-opacity:1;"/>
<stop offset="0.561" stop-color="#EF52E2" style="stop-color:#EF52E2;stop-color:color(display-p3 0.9373 0.3216 0.8863);stop-opacity:1;"/>
<stop offset="1" stop-color="#661EEC" style="stop-color:#661EEC;stop-color:color(display-p3 0.4000 0.1176 0.9255);stop-opacity:1;"/>
</linearGradient>
<linearGradient id="paint2_linear_4559_390" x1="18.1214" y1="17.1406" x2="23.8227" y2="28.7358" gradientUnits="userSpaceOnUse">
<stop stop-color="#78F6D8" style="stop-color:#78F6D8;stop-color:color(display-p3 0.4706 0.9647 0.8471);stop-opacity:1;"/>
<stop offset="0.266" stop-color="#77D1F6" style="stop-color:#77D1F6;stop-color:color(display-p3 0.4667 0.8196 0.9647);stop-opacity:1;"/>
<stop offset="0.554" stop-color="#70A4F3" style="stop-color:#70A4F3;stop-color:color(display-p3 0.4392 0.6431 0.9529);stop-opacity:1;"/>
<stop offset="1" stop-color="#661EEC" style="stop-color:#661EEC;stop-color:color(display-p3 0.4000 0.1176 0.9255);stop-opacity:1;"/>
</linearGradient>
<linearGradient id="paint3_linear_4559_390" x1="23.5186" y1="27.0303" x2="33.8651" y2="9.04003" gradientUnits="userSpaceOnUse">
<stop stop-color="#536EED" style="stop-color:#536EED;stop-color:color(display-p3 0.3255 0.4314 0.9294);stop-opacity:1;"/>
<stop offset="0.247" stop-color="#54C3EC" style="stop-color:#54C3EC;stop-color:color(display-p3 0.3294 0.7647 0.9255);stop-opacity:1;"/>
<stop offset="0.564" stop-color="#64D769" style="stop-color:#64D769;stop-color:color(display-p3 0.3922 0.8431 0.4118);stop-opacity:1;"/>
<stop offset="1" stop-color="#FECF2C" style="stop-color:#FECF2C;stop-color:color(display-p3 0.9961 0.8118 0.1725);stop-opacity:1;"/>
</linearGradient>
</defs>
</svg>
