<svg width="56" height="42" viewBox="0 0 56 42" fill="none" xmlns="http://www.w3.org/2000/svg">
<rect width="56" height="42" rx="7" fill="black" style="fill:black;fill-opacity:1;"/>
<path d="M42.875 29.0471C42.8471 29.5493 42.5869 30.0081 42.1782 30.2808L28.699 38.3286C28.313 38.5571 27.686 38.5571 27.301 38.3286L13.8219 30.2808C13.4361 30.0525 13.125 29.505 13.125 29.0471V12.9536C13.1519 12.4505 13.4091 11.9925 13.8219 11.7188L27.301 3.6721C27.686 3.44263 28.313 3.44263 28.699 3.6721L42.1782 11.7188C42.563 11.9442 42.875 12.4947 42.875 12.9536V29.0471Z" fill="white" style="fill:white;fill-opacity:1;"/>
<path d="M35.0313 21.0363L31.5059 26.3707L29.7074 23.5245L31.7831 20.3172C32.1689 19.746 32.9944 18.1707 32.0403 16.0283C31.2686 14.28 29.5937 13.4476 28.1262 13.4476C26.6577 13.4476 25.0614 14.2234 24.196 16.0283C23.223 18.0987 24.0674 19.71 24.4344 20.2605L26.5489 23.4885L28.1101 25.8233L30.4591 29.5421C30.4781 29.5616 30.844 30.1481 31.5059 30.1481C32.129 30.1481 32.515 29.5617 32.5738 29.505L38.08 21.0765H35.0313V21.0363ZM28.1101 21.1692L26.5838 18.7212C25.9407 17.6397 26.6577 16.0283 28.1101 16.0283C29.5588 16.0283 30.2756 17.6397 29.6337 18.7212L28.1101 21.1692Z" fill="url(#paint0_radial_2740_2241)" style=""/>
<path d="M24.7308 26.201L21.2761 21.1886L19.7528 18.7406C19.1107 17.6602 19.8275 16.0437 21.2761 16.0437C21.4586 16.0437 21.626 16.0643 21.7897 16.1209L23.0049 13.8252C22.4516 13.5762 21.8485 13.4434 21.2951 13.4434C19.8275 13.4434 18.2264 14.2234 17.366 16.0283C16.3919 18.0945 17.2374 19.71 17.6033 20.2605L23.648 29.505C23.7018 29.5781 24.0877 30.1686 24.7308 30.1686C25.3727 30.1686 25.7386 29.5976 25.7975 29.5215L27.6121 26.6556L26.0547 24.2838L24.7308 26.201Z" fill="url(#paint1_radial_2740_2241)" style=""/>
<defs>
<radialGradient id="paint0_radial_2740_2241" cx="0" cy="0" r="1" gradientUnits="userSpaceOnUse" gradientTransform="translate(26.9626 14.9093) scale(16.2424 18.9231)">
<stop stop-color="#FFCC00" style="stop-color:#FFCC00;stop-color:color(display-p3 1.0000 0.8000 0.0000);stop-opacity:1;"/>
<stop offset="0.09157" stop-color="#FFC800" style="stop-color:#FFC800;stop-color:color(display-p3 1.0000 0.7843 0.0000);stop-opacity:1;"/>
<stop offset="0.1739" stop-color="#FFBD00" style="stop-color:#FFBD00;stop-color:color(display-p3 1.0000 0.7412 0.0000);stop-opacity:1;"/>
<stop offset="0.2528" stop-color="#FFAB00" style="stop-color:#FFAB00;stop-color:color(display-p3 1.0000 0.6706 0.0000);stop-opacity:1;"/>
<stop offset="0.3295" stop-color="#FF9100" style="stop-color:#FF9100;stop-color:color(display-p3 1.0000 0.5686 0.0000);stop-opacity:1;"/>
<stop offset="0.4046" stop-color="#FF7000" style="stop-color:#FF7000;stop-color:color(display-p3 1.0000 0.4392 0.0000);stop-opacity:1;"/>
<stop offset="0.4786" stop-color="#FF4700" style="stop-color:#FF4700;stop-color:color(display-p3 1.0000 0.2784 0.0000);stop-opacity:1;"/>
<stop offset="0.5503" stop-color="#FF1800" style="stop-color:#FF1800;stop-color:color(display-p3 1.0000 0.0941 0.0000);stop-opacity:1;"/>
<stop offset="0.5822" stop-color="#FF0000" style="stop-color:#FF0000;stop-color:color(display-p3 1.0000 0.0000 0.0000);stop-opacity:1;"/>
<stop offset="1" stop-color="#FF0000" style="stop-color:#FF0000;stop-color:color(display-p3 1.0000 0.0000 0.0000);stop-opacity:1;"/>
</radialGradient>
<radialGradient id="paint1_radial_2740_2241" cx="0" cy="0" r="1" gradientUnits="userSpaceOnUse" gradientTransform="translate(17.173 15.8742) scale(14.8933 23.2741)">
<stop stop-color="#00B4E6" style="stop-color:#00B4E6;stop-color:color(display-p3 0.0000 0.7059 0.9020);stop-opacity:1;"/>
<stop offset="0.201" stop-color="#00B0E3" style="stop-color:#00B0E3;stop-color:color(display-p3 0.0000 0.6902 0.8902);stop-opacity:1;"/>
<stop offset="0.3898" stop-color="#01A5DB" style="stop-color:#01A5DB;stop-color:color(display-p3 0.0039 0.6471 0.8588);stop-opacity:1;"/>
<stop offset="0.5737" stop-color="#0292CD" style="stop-color:#0292CD;stop-color:color(display-p3 0.0078 0.5725 0.8039);stop-opacity:1;"/>
<stop offset="0.7546" stop-color="#0377BA" style="stop-color:#0377BA;stop-color:color(display-p3 0.0118 0.4667 0.7294);stop-opacity:1;"/>
<stop offset="0.9316" stop-color="#0455A1" style="stop-color:#0455A1;stop-color:color(display-p3 0.0157 0.3333 0.6314);stop-opacity:1;"/>
<stop offset="1" stop-color="#054696" style="stop-color:#054696;stop-color:color(display-p3 0.0196 0.2745 0.5882);stop-opacity:1;"/>
</radialGradient>
</defs>
</svg>
